UbuntuMono-RI.ufo
<glyph name="exclam" format="2">
	<unicode hex="0021"/>
	<advance width="500"/>
	<outline>
		<contour>
			<point x="374" y="451" type="line"/>
			<point x="365" y="414"/>
			<point x="348" y="352"/>
			<point x="330" y="296"/>
			<point x="311" y="241"/>
			<point x="301" y="211" type="qcurve"/>
			<point x="244" y="211" type="line"/>
			<point x="248" y="241"/>
			<point x="255" y="296"/>
			<point x="264" y="352"/>
			<point x="276" y="414"/>
			<point x="285" y="451" type="qcurve"/>
			<point x="325" y="619" type="line"/>
			<point x="414" y="619" type="line"/>
		</contour>
		<contour>
			<point x="232" y="-12" type="qcurve"/>
			<point x="206" y="-12"/>
			<point x="173" y="18"/>
			<point x="173" y="48" type="qcurve"/>
			<point x="173" y="84"/>
			<point x="214" y="124"/>
			<point x="243" y="124" type="qcurve"/>
			<point x="269" y="124"/>
			<point x="304" y="93"/>
			<point x="304" y="63" type="qcurve"/>
			<point x="304" y="28"/>
			<point x="259" y="-12"/>
		</contour>
	</outline>
</glyph>
<glyph name="period" format="2">
	<unicode hex="002E"/>
	<advance width="500"/>
	<outline>
		<contour>
			<point x="240" y="-12" type="qcurve"/>
			<point x="212" y="-12"/>
			<point x="174" y="22"/>
			<point x="174" y="55" type="qcurve"/>
			<point x="174" y="97"/>
			<point x="221" y="141"/>
			<point x="253" y="141" type="qcurve"/>
			<point x="281" y="141"/>
			<point x="321" y="106"/>
			<point x="321" y="71" type="qcurve"/>
			<point x="321" y="52"/>
			<point x="307" y="22"/>
			<point x="284" y="0"/>
			<point x="255" y="-12"/>
		</contour>
	</outline>
</glyph>
<glyph name="slash" format="2">
	<unicode hex="002F"/>
	<advance width="500"/>
	<outline>
		<contour>
			<point x="67" y="-165" type="line"/>
			<point x="-17" y="-165" type="line"/>
			<point x="470" y="699" type="line"/>
			<point x="553" y="699" type="line"/>
		</contour>
	</outline>
</glyph>
<glyph name="seven" format="2">
	<unicode hex="0037"/>
	<advance width="500"/>
	<outline>
		<contour>
			<point x="139" y="0" type="line"/>
			<point x="159" y="71"/>
			<point x="236" y="229"/>
			<point x="331" y="379"/>
			<point x="434" y="508"/>
			<point x="480" y="549" type="qcurve"/>
			<point x="186" y="549" type="line"/>
			<point x="202" y="619" type="line"/>
			<point x="590" y="619" type="line"/>
			<point x="573" y="547" type="line"/>
			<point x="535" y="514"/>
			<point x="435" y="397"/>
			<point x="336" y="250"/>
			<point x="251" y="83"/>
			<point x="227" y="0" type="qcurve"/>
		</contour>
	</outline>
</glyph>
<glyph name="at" format="2">
	<unicode hex="0040"/>
	<advance width="500"/>
	<outline>
		<contour>
			<point x="467" y="63" type="line"/>
			<point x="443" y="53"/>
			<point x="391" y="43"/>
			<point x="367" y="43" type="qcurve"/>
			<point x="337" y="43"/>
			<point x="284" y="60"/>
			<point x="243" y="96"/>
			<point x="219" y="153"/>
			<point x="219" y="194" type="qcurve"/>
			<point x="219" y="240"/>
			<point x="246" y="325"/>
			<point x="301" y="391"/>
			<point x="387" y="430"/>
			<point x="447" y="430" type="qcurve"/>
			<point x="454" y="430"/>
			<point x="469" y="429"/>
			<point x="477" y="428" type="qcurve"/>
			<point x="483" y="453"/>
			<point x="483" y="477" type="qcurve"/>
			<point x="483" y="515"/>
			<point x="444" y="564"/>
			<point x="396" y="564" type="qcurve"/>
			<point x="342" y="564"/>
			<point x="250" y="487"/>
			<point x="183" y="367"/>
			<point x="146" y="222"/>
			<point x="146" y="154" type="qcurve"/>
			<point x="146" y="109"/>
			<point x="164" y="29"/>
			<point x="201" y="-30"/>
			<point x="259" y="-65"/>
			<point x="300" y="-65" type="qcurve"/>
			<point x="317" y="-65"/>
			<point x="354" y="-60"/>
			<point x="375" y="-54" type="qcurve"/>
			<point x="368" y="-121" type="line"/>
			<point x="323" y="-133"/>
			<point x="285" y="-133" type="qcurve"/>
			<point x="229" y="-133"/>
			<point x="147" y="-89"/>
			<point x="94" y="-11"/>
			<point x="69" y="94"/>
			<point x="69" y="154" type="qcurve"/>
			<point x="69" y="208"/>
			<point x="90" y="322"/>
			<point x="130" y="428"/>
			<point x="188" y="523"/>
			<point x="262" y="593"/>
			<point x="351" y="634"/>
			<point x="402" y="634" type="qcurve"/>
			<point x="482" y="634"/>
			<point x="559" y="548"/>
			<point x="559" y="480" type="qcurve"/>
			<point x="559" y="445"/>
			<point x="550" y="408" type="qcurve"/>
		</contour>
		<contour>
			<point x="460" y="358" type="line"/>
			<point x="442" y="364"/>
			<point x="426" y="364" type="qcurve"/>
			<point x="394" y="364"/>
			<point x="345" y="336"/>
			<point x="312" y="290"/>
			<point x="296" y="229"/>
			<point x="296" y="195" type="qcurve"/>
			<point x="296" y="153"/>
			<point x="333" y="108"/>
			<point x="368" y="108" type="qcurve"/>
			<point x="376" y="108"/>
			<point x="391" y="110"/>
			<point x="401" y="113" type="qcurve"/>
		</contour>
	</outline>
	<guideline x="340"/>
</glyph>
<glyph name="G" format="2">
	<unicode hex="0047"/>
	<advance width="500"/>
	<outline>
		<contour>
			<point x="265" y="-13" type="qcurve"/>
			<point x="223" y="-13"/>
			<point x="154" y="17"/>
			<point x="106" y="73"/>
			<point x="80" y="153"/>
			<point x="80" y="202" type="qcurve"/>
			<point x="80" y="281"/>
			<point x="126" y="436"/>
			<point x="213" y="558"/>
			<point x="337" y="633"/>
			<point x="415" y="633" type="qcurve"/>
			<point x="446" y="633"/>
			<point x="492" y="624"/>
			<point x="526" y="610"/>
			<point x="550" y="594"/>
			<point x="558" y="587" type="qcurve"/>
			<point x="519" y="521" type="line"/>
			<point x="502" y="536"/>
			<point x="446" y="561"/>
			<point x="409" y="561" type="qcurve"/>
			<point x="351" y="561"/>
			<point x="260" y="501"/>
			<point x="197" y="403"/>
			<point x="163" y="279"/>
			<point x="163" y="215" type="qcurve"/>
			<point x="163" y="143"/>
			<point x="227" y="59"/>
			<point x="288" y="59" type="qcurve"/>
			<point x="313" y="59"/>
			<point x="350" y="66"/>
			<point x="361" y="70" type="qcurve"/>
			<point x="417" y="304" type="line"/>
			<point x="499" y="304" type="line"/>
			<point x="430" y="14" type="line"/>
			<point x="422" y="11"/>
			<point x="389" y="2"/>
			<point x="345" y="-7"/>
			<point x="292" y="-13"/>
		</contour>
	</outline>
</glyph>
<glyph name="I" format="2">
	<unicode hex="0049"/>
	<advance width="500"/>
	<outline>
		<contour>
			<point x="524" y="549" type="line"/>
			<point x="541" y="619" type="line"/>
			<point x="220" y="619" type="line"/>
			<point x="203" y="549" type="line"/>
			<point x="322" y="549" type="line"/>
			<point x="207" y="70" type="line"/>
			<point x="88" y="70" type="line"/>
			<point x="71" y="0" type="line"/>
			<point x="392" y="0" type="line"/>
			<point x="409" y="70" type="line"/>
			<point x="289" y="70" type="line"/>
			<point x="405" y="549" type="line"/>
		</contour>
	</outline>
	<guideline x="36" y="0" angle="103.5"/>
</glyph>
<glyph name="K" format="2">
	<unicode hex="004B"/>
	<advance width="500"/>
	<outline>
		<contour>
			<point x="588" y="619" type="line"/>
			<point x="552" y="581"/>
			<point x="481" y="509"/>
			<point x="407" y="437"/>
			<point x="329" y="362"/>
			<point x="284" y="322" type="qcurve"/>
			<point x="305" y="298"/>
			<point x="354" y="231"/>
			<point x="402" y="148"/>
			<point x="448" y="52"/>
			<point x="467" y="0" type="qcurve"/>
			<point x="378" y="0" type="line"/>
			<point x="340" y="106"/>
			<point x="250" y="251"/>
			<point x="198" y="298" type="qcurve"/>
			<point x="127" y="0" type="line"/>
			<point x="45" y="0" type="line"/>
			<point x="193" y="619" type="line"/>
			<point x="275" y="619" type="line"/>
			<point x="210" y="348" type="line"/>
			<point x="294" y="423"/>
			<point x="429" y="556"/>
			<point x="486" y="619" type="qcurve"/>
		</contour>
	</outline>
</glyph>
<glyph name="L" format="2">
	<unicode hex="004C"/>
	<advance width="500"/>
	<outline>
		<contour>
			<point x="153" y="70" type="line"/>
			<point x="285" y="619" type="line"/>
			<point x="203" y="619" type="line"/>
			<point x="54" y="0" type="line"/>
			<point x="405" y="0" type="line"/>
			<point x="421" y="70" type="line"/>
		</contour>
	</outline>
</glyph>
<glyph name="O" format="2">
	<unicode hex="004F"/>
	<advance width="500"/>
	<outline>
		<contour>
			<point x="369" y="562" type="qcurve"/>
			<point x="320" y="562"/>
			<point x="243" y="489"/>
			<point x="191" y="378"/>
			<point x="163" y="247"/>
			<point x="163" y="190" type="qcurve"/>
			<point x="163" y="119"/>
			<point x="211" y="58"/>
			<point x="254" y="58" type="qcurve"/>
			<point x="303" y="58"/>
			<point x="379" y="131"/>
			<point x="431" y="242"/>
			<point x="458" y="373"/>
			<point x="458" y="430" type="qcurve"/>
			<point x="458" y="500"/>
			<point x="411" y="562"/>
		</contour>
		<contour>
			<point x="379" y="633" type="qcurve"/>
			<point x="451" y="633"/>
			<point x="541" y="538"/>
			<point x="541" y="436" type="qcurve"/>
			<point x="541" y="399"/>
			<point x="527" y="304"/>
			<point x="497" y="204"/>
			<point x="450" y="108"/>
			<point x="384" y="33"/>
			<point x="298" y="-13"/>
			<point x="244" y="-13" type="qcurve"/>
			<point x="171" y="-13"/>
			<point x="80" y="82"/>
			<point x="80" y="184" type="qcurve"/>
			<point x="80" y="221"/>
			<point x="94" y="316"/>
			<point x="124" y="416"/>
			<point x="172" y="512"/>
			<point x="238" y="587"/>
			<point x="325" y="633"/>
		</contour>
	</outline>
</glyph>
<glyph name="R" format="2">
	<unicode hex="0052"/>
	<advance width="500"/>
	<outline>
		<contour>
			<point x="528" y="477" type="qcurve"/>
			<point x="528" y="392"/>
			<point x="438" y="282"/>
			<point x="364" y="259" type="qcurve"/>
			<point x="377" y="232"/>
			<point x="400" y="182"/>
			<point x="420" y="123"/>
			<point x="440" y="49"/>
			<point x="451" y="0" type="qcurve"/>
			<point x="367" y="0" type="line"/>
			<point x="356" y="53"/>
			<point x="335" y="128"/>
			<point x="315" y="183"/>
			<point x="295" y="224"/>
			<point x="285" y="244" type="qcurve"/>
			<point x="185" y="244" type="line"/>
			<point x="126" y="0" type="line"/>
			<point x="45" y="0" type="line"/>
			<point x="190" y="610" type="line"/>
			<point x="206" y="614"/>
			<point x="245" y="620"/>
			<point x="285" y="623"/>
			<point x="324" y="625"/>
			<point x="340" y="625" type="qcurve"/>
			<point x="438" y="625"/>
			<point x="528" y="544"/>
		</contour>
		<contour>
			<point x="334" y="555" type="qcurve"/>
			<point x="311" y="555"/>
			<point x="268" y="553"/>
			<point x="258" y="551" type="qcurve"/>
			<point x="201" y="312" type="line"/>
			<point x="251" y="312" type="line"/>
			<point x="291" y="312"/>
			<point x="362" y="325"/>
			<point x="415" y="360"/>
			<point x="446" y="419"/>
			<point x="446" y="464" type="qcurve"/>
			<point x="446" y="512"/>
			<point x="384" y="555"/>
		</contour>
	</outline>
</glyph>
<glyph name="U" format="2">
	<unicode hex="0055"/>
	<advance width="500"/>
	<outline>
		<contour>
			<point x="237" y="-13" type="qcurve"/>
			<point x="196" y="-13"/>
			<point x="138" y="15"/>
			<point x="99" y="62"/>
			<point x="81" y="124"/>
			<point x="81" y="158" type="qcurve"/>
			<point x="81" y="188"/>
			<point x="89" y="222" type="qcurve"/>
			<point x="184" y="619" type="line"/>
			<point x="266" y="619" type="line"/>
			<point x="171" y="223" type="line"/>
			<point x="163" y="189"/>
			<point x="163" y="160" type="qcurve"/>
			<point x="163" y="139"/>
			<point x="172" y="102"/>
			<point x="192" y="74"/>
			<point x="225" y="58"/>
			<point x="249" y="58" type="qcurve"/>
			<point x="276" y="58"/>
			<point x="320" y="71"/>
			<point x="356" y="105"/>
			<point x="384" y="165"/>
			<point x="396" y="212" type="qcurve"/>
			<point x="494" y="619" type="line"/>
			<point x="576" y="619" type="line"/>
			<point x="476" y="202" type="line"/>
			<point x="464" y="151"/>
			<point x="429" y="71"/>
			<point x="374" y="16"/>
			<point x="294" y="-13"/>
		</contour>
	</outline>
</glyph>
<glyph name="V" format="2">
	<unicode hex="0056"/>
	<advance width="500"/>
	<outline>
		<contour>
			<point x="222" y="619" type="line"/>
			<point x="223" y="441"/>
			<point x="237" y="169"/>
			<point x="244" y="72" type="qcurve"/>
			<point x="314" y="201"/>
			<point x="455" y="468"/>
			<point x="524" y="619" type="qcurve"/>
			<point x="612" y="619" type="line"/>
			<point x="597" y="587"/>
			<point x="530" y="453"/>
			<point x="439" y="282"/>
			<point x="332" y="90"/>
			<point x="278" y="0" type="qcurve"/>
			<point x="176" y="0" type="line"/>
			<point x="166" y="90"/>
			<point x="151" y="282"/>
			<point x="141" y="453"/>
			<point x="136" y="587"/>
			<point x="136" y="619" type="qcurve"/>
		</contour>
	</outline>
</glyph>
<glyph name="W" format="2">
	<unicode hex="0057"/>
	<advance width="500"/>
	<outline>
		<contour>
			<point x="306" y="309" type="line"/>
			<point x="136" y="0" type="line"/>
			<point x="59" y="0" type="line"/>
			<point x="65" y="64"/>
			<point x="87" y="211"/>
			<point x="115" y="370"/>
			<point x="147" y="536"/>
			<point x="163" y="619" type="qcurve"/>
			<point x="244" y="619" type="line"/>
			<point x="232" y="567"/>
			<point x="203" y="439"/>
			<point x="172" y="301"/>
			<point x="141" y="162"/>
			<point x="128" y="100" type="qcurve"/>
			<point x="143" y="128"/>
			<point x="182" y="197"/>
			<point x="224" y="272"/>
			<point x="266" y="348"/>
			<point x="286" y="384" type="qcurve"/>
			<point x="357" y="384" type="line"/>
			<point x="359" y="350"/>
			<point x="365" y="273"/>
			<point x="372" y="197"/>
			<point x="378" y="127"/>
			<point x="381" y="100" type="qcurve"/>
			<point x="399" y="164"/>
			<point x="437" y="301"/>
			<point x="474" y="437"/>
			<point x="507" y="565"/>
			<point x="521" y="619" type="qcurve"/>
			<point x="600" y="619" type="line"/>
			<point x="556" y="463"/>
			<point x="464" y="162"/>
			<point x="405" y="0" type="qcurve"/>
			<point x="329" y="0" type="line"/>
		</contour>
	</outline>
	<guideline x="197"/>
	<guideline x="202"/>
	<guideline y="81"/>
	<guideline y="112"/>
	<guideline y="146"/>
	<guideline y="357"/>
	<guideline y="384"/>
</glyph>
<glyph name="Z" format="2">
	<unicode hex="005A"/>
	<advance width="500"/>
	<outline>
		<contour>
			<point x="556" y="550" type="line"/>
			<point x="514" y="506"/>
			<point x="405" y="385"/>
			<point x="291" y="254"/>
			<point x="185" y="124"/>
			<point x="146" y="70" type="qcurve"/>
			<point x="450" y="70" type="line"/>
			<point x="434" y="0" type="line"/>
			<point x="36" y="0" type="line"/>
			<point x="52" y="68" type="line"/>
			<point x="99" y="129"/>
			<point x="202" y="256"/>
			<point x="307" y="380"/>
			<point x="412" y="498"/>
			<point x="460" y="549" type="qcurve"/>
			<point x="179" y="549" type="line"/>
			<point x="196" y="619" type="line"/>
			<point x="572" y="619" type="line"/>
		</contour>
	</outline>
	<guideline y="70"/>
	<guideline y="549"/>
</glyph>
<glyph name="backslash" format="2">
	<unicode hex="005C"/>
	<advance width="500"/>
	<outline>
		<contour>
			<point x="219" y="699" type="line"/>
			<point x="302" y="699" type="line"/>
			<point x="371" y="-165" type="line"/>
			<point x="287" y="-165" type="line"/>
		</contour>
	</outline>
</glyph>
<glyph name="underscore" format="2">
	<unicode hex="005F"/>
	<advance width="500"/>
	<outline>
		<contour>
			<point x="-10" y="-95" type="line"/>
			<point x="437" y="-95" type="line"/>
			<point x="420" y="-165" type="line"/>
			<point x="-27" y="-165" type="line"/>
		</contour>
	</outline>
</glyph>
<glyph name="a" format="2">
	<unicode hex="0061"/>
	<advance width="500"/>
	<outline>
		<contour>
			<point x="376" y="-5" type="line"/>
			<point x="371" y="5"/>
			<point x="363" y="28"/>
			<point x="361" y="42" type="qcurve"/>
			<point x="341" y="24"/>
			<point x="270" y="-11"/>
			<point x="222" y="-11" type="qcurve"/>
			<point x="144" y="-11"/>
			<point x="71" y="83"/>
			<point x="71" y="155" type="qcurve"/>
			<point x="71" y="215"/>
			<point x="111" y="329"/>
			<point x="192" y="419"/>
			<point x="314" y="474"/>
			<point x="395" y="474" type="qcurve"/>
			<point x="407" y="474"/>
			<point x="438" y="472"/>
			<point x="470" y="466"/>
			<point x="501" y="457"/>
			<point x="513" y="451" type="qcurve"/>
			<point x="445" y="171" type="line"/>
			<point x="440" y="150"/>
			<point x="433" y="113"/>
			<point x="433" y="92" type="qcurve"/>
			<point x="433" y="71"/>
			<point x="441" y="30"/>
			<point x="449" y="5" type="qcurve"/>
		</contour>
		<contour>
			<point x="239" y="57" type="qcurve"/>
			<point x="277" y="57"/>
			<point x="336" y="89"/>
			<point x="356" y="111" type="qcurve"/>
			<point x="357" y="126"/>
			<point x="362" y="164"/>
			<point x="366" y="181" type="qcurve"/>
			<point x="421" y="400" type="line"/>
			<point x="416" y="402"/>
			<point x="388" y="405"/>
			<point x="380" y="405" type="qcurve"/>
			<point x="329" y="405"/>
			<point x="246" y="365"/>
			<point x="186" y="298"/>
			<point x="154" y="211"/>
			<point x="154" y="164" type="qcurve"/>
			<point x="154" y="141"/>
			<point x="162" y="102"/>
			<point x="181" y="74"/>
			<point x="214" y="57"/>
		</contour>
	</outline>
</glyph>
<glyph name="k" format="2">
	<unicode hex="006B"/>
	<advance width="500"/>
	<outline>
		<contour>
			<point x="63" y="0" type="line"/>
			<point x="226" y="679" type="line"/>
			<point x="312" y="693" type="line"/>
			<point x="211" y="277" type="line"/>
			<point x="271" y="321"/>
			<point x="396" y="418"/>
			<point x="447" y="464" type="qcurve"/>
			<point x="545" y="464" type="line"/>
			<point x="520" y="438"/>
			<point x="453" y="380"/>
			<point x="382" y="323"/>
			<point x="314" y="271"/>
			<point x="288" y="252" type="qcurve"/>
			<point x="311" y="232"/>
			<point x="360" y="174"/>
			<point x="405" y="106"/>
			<point x="444" y="34"/>
			<point x="456" y="0" type="qcurve"/>
			<point x="367" y="0" type="line"/>
			<point x="335" y="72"/>
			<point x="249" y="194"/>
			<point x="201" y="232" type="qcurve"/>
			<point x="145" y="0" type="line"/>
		</contour>
	</outline>
</glyph>
<glyph name="m" format="2">
	<unicode hex="006D"/>
	<advance width="500"/>
	<outline>
		<contour>
			<point x="139" y="451" type="line"/>
			<point x="202" y="474"/>
			<point x="254" y="474" type="qcurve"/>
			<point x="282" y="474"/>
			<point x="325" y="457"/>
			<point x="338" y="440" type="qcurve"/>
			<point x="387" y="474"/>
			<point x="434" y="474" type="qcurve"/>
			<point x="457" y="474"/>
			<point x="494" y="456"/>
			<point x="517" y="420"/>
			<point x="523" y="366"/>
			<point x="514" y="330" type="qcurve"/>
			<point x="436" y="0" type="line"/>
			<point x="361" y="0" type="line"/>
			<point x="440" y="332" type="line"/>
			<point x="449" y="368"/>
			<point x="429" y="406"/>
			<point x="406" y="406" type="qcurve"/>
			<point x="381" y="406"/>
			<point x="355" y="381" type="qcurve"/>
			<point x="355" y="370"/>
			<point x="353" y="344"/>
			<point x="349" y="330" type="qcurve"/>
			<point x="313" y="179" type="line"/>
			<point x="238" y="179" type="line"/>
			<point x="275" y="331" type="line"/>
			<point x="284" y="366"/>
			<point x="272" y="406"/>
			<point x="243" y="406" type="qcurve"/>
			<point x="225" y="406"/>
			<point x="201" y="397" type="qcurve"/>
			<point x="105" y="0" type="line"/>
			<point x="31" y="0" type="line"/>
		</contour>
	</outline>
	<guideline x="215"/>
	<guideline y="107"/>
	<guideline y="143"/>
	<guideline y="179"/>
</glyph>
<glyph name="p" format="2">
	<unicode hex="0070"/>
	<advance width="500"/>
	<outline>
		<contour>
			<point x="337" y="475" type="qcurve"/>
			<point x="380" y="475"/>
			<point x="444" y="450"/>
			<point x="485" y="407"/>
			<point x="505" y="347"/>
			<point x="505" y="312" type="qcurve"/>
			<point x="505" y="250"/>
			<point x="468" y="134"/>
			<point x="390" y="44"/>
			<point x="271" y="-11"/>
			<point x="190" y="-11" type="qcurve"/>
			<point x="180" y="-11"/>
			<point x="147" y="-6"/>
			<point x="138" y="-4" type="qcurve"/>
			<point x="100" y="-165" type="line"/>
			<point x="18" y="-165" type="line"/>
			<point x="164" y="445" type="line"/>
			<point x="182" y="452"/>
			<point x="227" y="464"/>
			<point x="273" y="471"/>
			<point x="318" y="475"/>
		</contour>
		<contour>
			<point x="156" y="68" type="line"/>
			<point x="165" y="66"/>
			<point x="194" y="63"/>
			<point x="204" y="63" type="qcurve"/>
			<point x="255" y="63"/>
			<point x="336" y="102"/>
			<point x="393" y="168"/>
			<point x="423" y="255"/>
			<point x="423" y="302" type="qcurve"/>
			<point x="423" y="322"/>
			<point x="414" y="359"/>
			<point x="390" y="388"/>
			<point x="348" y="405"/>
			<point x="316" y="405" type="qcurve"/>
			<point x="294" y="405"/>
			<point x="248" y="397"/>
			<point x="235" y="394" type="qcurve"/>
		</contour>
	</outline>
</glyph>
<glyph name="v" format="2">
	<unicode hex="0076"/>
	<advance width="500"/>
	<outline>
		<contour>
			<point x="193" y="0" type="line"/>
			<point x="171" y="92"/>
			<point x="137" y="335"/>
			<point x="134" y="464" type="qcurve"/>
			<point x="218" y="464" type="line"/>
			<point x="219" y="420"/>
			<point x="225" y="321"/>
			<point x="235" y="222"/>
			<point x="247" y="130"/>
			<point x="254" y="93" type="qcurve"/>
			<point x="281" y="127"/>
			<point x="338" y="219"/>
			<point x="392" y="319"/>
			<point x="436" y="421"/>
			<point x="450" y="464" type="qcurve"/>
			<point x="534" y="464" type="line"/>
			<point x="514" y="405"/>
			<point x="454" y="279"/>
			<point x="383" y="156"/>
			<point x="306" y="44"/>
			<point x="269" y="0" type="qcurve"/>
		</contour>
	</outline>
</glyph>
<glyph name="y" format="2">
	<unicode hex="0079"/>
	<advance width="500"/>
	<outline>
		<contour>
			<point x="283" y="75" type="qcurve"/>
			<point x="317" y="129"/>
			<point x="372" y="244"/>
			<point x="414" y="349"/>
			<point x="443" y="437"/>
			<point x="449" y="464" type="qcurve"/>
			<point x="536" y="464" type="line"/>
			<point x="526" y="430"/>
			<point x="490" y="329"/>
			<point x="439" y="212"/>
			<point x="375" y="89"/>
			<point x="338" y="34" type="qcurve"/>
			<point x="310" y="-8"/>
			<point x="253" y="-82"/>
			<point x="188" y="-137"/>
			<point x="109" y="-168"/>
			<point x="60" y="-168" type="qcurve"/>
			<point x="35" y="-168"/>
			<point x="-7" y="-156"/>
			<point x="-18" y="-148" type="qcurve"/>
			<point x="11" y="-80" type="line"/>
			<point x="19" y="-88"/>
			<point x="50" y="-97"/>
			<point x="69" y="-97" type="qcurve"/>
			<point x="121" y="-97"/>
			<point x="191" y="-55"/>
			<point x="225" y="-6" type="qcurve"/>
			<point x="192" y="103"/>
			<point x="142" y="341"/>
			<point x="137" y="464" type="qcurve"/>
			<point x="221" y="464" type="line"/>
			<point x="222" y="424"/>
			<point x="232" y="328"/>
			<point x="249" y="226"/>
			<point x="271" y="122"/>
		</contour>
	</outline>
</glyph>
<glyph name="braceleft" format="2">
	<unicode hex="007B"/>
	<advance width="500"/>
	<outline>
		<contour>
			<point x="89" y="235" type="line"/>
			<point x="105" y="299" type="line"/>
			<point x="146" y="299" type="line"/>
			<point x="166" y="299"/>
			<point x="199" y="314"/>
			<point x="225" y="339"/>
			<point x="242" y="370"/>
			<point x="246" y="386" type="qcurve"/>
			<point x="284" y="547" type="line"/>
			<point x="294" y="588"/>
			<point x="323" y="646"/>
			<point x="371" y="682"/>
			<point x="439" y="699"/>
			<point x="488" y="699" type="qcurve"/>
			<point x="572" y="699" type="line"/>
			<point x="555" y="634" type="line"/>
			<point x="475" y="634" type="line"/>
			<point x="451" y="634"/>
			<point x="413" y="628"/>
			<point x="386" y="609"/>
			<point x="366" y="574"/>
			<point x="360" y="546" type="qcurve"/>
			<point x="327" y="408" type="line"/>
			<point x="313" y="349"/>
			<point x="270" y="283"/>
			<point x="233" y="267" type="qcurve"/>
			<point x="252" y="251"/>
			<point x="269" y="210"/>
			<point x="269" y="187" type="qcurve"/>
			<point x="269" y="171"/>
			<point x="263" y="141"/>
			<point x="260" y="126" type="qcurve"/>
			<point x="227" y="-12" type="line"/>
			<point x="221" y="-38"/>
			<point x="221" y="-52" type="qcurve"/>
			<point x="221" y="-81"/>
			<point x="258" y="-100"/>
			<point x="298" y="-100" type="qcurve"/>
			<point x="382" y="-100" type="line"/>
			<point x="365" y="-165" type="line"/>
			<point x="278" y="-165" type="line"/>
			<point x="213" y="-165"/>
			<point x="144" y="-120"/>
			<point x="144" y="-66" type="qcurve"/>
			<point x="144" y="-41"/>
			<point x="151" y="-13" type="qcurve"/>
			<point x="189" y="148" type="line"/>
			<point x="193" y="161"/>
			<point x="193" y="174" type="qcurve"/>
			<point x="193" y="199"/>
			<point x="164" y="235"/>
			<point x="129" y="235" type="qcurve"/>
		</contour>
	</outline>
	<guideline x="270"/>
	<guideline y="-100"/>
	<guideline y="634"/>
	<guideline y="699"/>
</glyph>
<glyph name="bar" format="2">
	<unicode hex="007C"/>
	<advance width="500"/>
	<outline>
		<contour>
			<point x="153" y="-165" type="line"/>
			<point x="231" y="-165" type="line"/>
			<point x="439" y="699" type="line"/>
			<point x="361" y="699" type="line"/>
		</contour>
	</outline>
	<guideline x="254"/>
</glyph>
<glyph name="ordfeminine" format="2">
	<unicode hex="00AA"/>
	<advance width="500"/>
	<outline>
		<contour>
			<point x="288" y="295" type="qcurve"/>
			<point x="230" y="295"/>
			<point x="179" y="359"/>
			<point x="179" y="413" type="qcurve"/>
			<point x="179" y="454"/>
			<point x="208" y="533"/>
			<point x="265" y="594"/>
			<point x="351" y="632"/>
			<point x="408" y="632" type="qcurve"/>
			<point x="425" y="632"/>
			<point x="471" y="624"/>
			<point x="491" y="616" type="qcurve"/>
			<point x="442" y="435" type="line"/>
			<point x="434" y="405"/>
			<point x="434" y="380" type="qcurve"/>
			<point x="434" y="357"/>
			<point x="442" y="326"/>
			<point x="450" y="307" type="qcurve"/>
			<point x="388" y="296" type="line"/>
			<point x="385" y="301"/>
			<point x="377" y="319"/>
			<point x="375" y="328" type="qcurve"/>
			<point x="362" y="315"/>
			<point x="319" y="295"/>
		</contour>
		<contour>
			<point x="414" y="575" type="line"/>
			<point x="412" y="576"/>
			<point x="403" y="578"/>
			<point x="396" y="578" type="qcurve"/>
			<point x="362" y="578"/>
			<point x="306" y="552"/>
			<point x="266" y="508"/>
			<point x="244" y="450"/>
			<point x="244" y="419" type="qcurve"/>
			<point x="244" y="392"/>
			<point x="267" y="349"/>
			<point x="303" y="349" type="qcurve"/>
			<point x="323" y="349"/>
			<point x="356" y="369"/>
			<point x="370" y="383" type="qcurve"/>
			<point x="370" y="397"/>
			<point x="376" y="428"/>
			<point x="379" y="439" type="qcurve"/>
		</contour>
	</outline>
</glyph>
<glyph name="cedilla" format="2">
	<unicode hex="00B8"/>
	<advance width="500"/>
	<outline>
		<contour>
			<point x="260" y="-34" type="qcurve"/>
			<point x="278" y="-44"/>
			<point x="296" y="-67"/>
			<point x="296" y="-88" type="qcurve"/>
			<point x="296" y="-127"/>
			<point x="240" y="-169"/>
			<point x="192" y="-169" type="qcurve"/>
			<point x="166" y="-169"/>
			<point x="131" y="-161"/>
			<point x="120" y="-155" type="qcurve"/>
			<point x="140" y="-106" type="line"/>
			<point x="148" y="-110"/>
			<point x="171" y="-116"/>
			<point x="188" y="-116" type="qcurve"/>
			<point x="203" y="-116"/>
			<point x="222" y="-107"/>
			<point x="222" y="-94" type="qcurve"/>
			<point x="222" y="-79"/>
			<point x="199" y="-65"/>
			<point x="186" y="-62" type="qcurve"/>
			<point x="191" y="-53"/>
			<point x="207" y="-29"/>
			<point x="223" y="-6"/>
			<point x="237" y="13"/>
			<point x="241" y="18" type="qcurve"/>
			<point x="298" y="18" type="line"/>
			<point x="290" y="7"/>
			<point x="268" y="-23"/>
		</contour>
	</outline>
</glyph>
<glyph name="questiondown" format="2">
	<unicode hex="00BF"/>
	<advance width="500"/>
	<outline>
		<contour>
			<point x="369" y="243" type="line"/>
			<point x="366" y="223" type="line"/>
			<point x="362" y="193"/>
			<point x="327" y="147"/>
			<point x="281" y="106"/>
			<point x="230" y="70"/>
			<point x="187" y="31"/>
			<point x="159" y="-12"/>
			<point x="159" y="-38" type="qcurve"/>
			<point x="159" y="-67"/>
			<point x="196" y="-102"/>
			<point x="238" y="-102" type="qcurve"/>
			<point x="267" y="-102"/>
			<point x="322" y="-90"/>
			<point x="354" y="-74" type="qcurve"/>
			<point x="363" y="-138" type="line"/>
			<point x="338" y="-151"/>
			<point x="265" y="-170"/>
			<point x="226" y="-170" type="qcurve"/>
			<point x="197" y="-170"/>
			<point x="144" y="-158"/>
			<point x="102" y="-130"/>
			<point x="77" y="-84"/>
			<point x="77" y="-49" type="qcurve"/>
			<point x="77" y="-12"/>
			<point x="106" y="43"/>
			<point x="151" y="88"/>
			<point x="205" y="126"/>
			<point x="253" y="166"/>
			<point x="290" y="212"/>
			<point x="296" y="243" type="qcurve"/>
		</contour>
		<contour>
			<point x="372" y="465" type="qcurve"/>
			<point x="398" y="465"/>
			<point x="431" y="436"/>
			<point x="431" y="405" type="qcurve"/>
			<point x="431" y="369"/>
			<point x="390" y="330"/>
			<point x="362" y="330" type="qcurve"/>
			<point x="336" y="330"/>
			<point x="301" y="361"/>
			<point x="301" y="391" type="qcurve"/>
			<point x="301" y="426"/>
			<point x="346" y="465"/>
		</contour>
	</outline>
</glyph>
<glyph name="germandbls" format="2">
	<unicode hex="00DF"/>
	<advance width="500"/>
	<outline>
		<contour>
			<point x="175" y="463" type="line"/>
			<point x="188" y="518"/>
			<point x="220" y="603"/>
			<point x="267" y="662"/>
			<point x="332" y="693"/>
			<point x="378" y="693" type="qcurve"/>
			<point x="449" y="693"/>
			<point x="515" y="625"/>
			<point x="515" y="572" type="qcurve"/>
			<point x="515" y="546"/>
			<point x="504" y="508"/>
			<point x="481" y="474"/>
			<point x="446" y="441"/>
			<point x="422" y="420" type="qcurve"/>
			<point x="407" y="406"/>
			<point x="385" y="387"/>
			<point x="370" y="368"/>
			<point x="363" y="348"/>
			<point x="363" y="335" type="qcurve"/>
			<point x="363" y="321"/>
			<point x="383" y="299"/>
			<point x="413" y="277"/>
			<point x="447" y="254"/>
			<point x="477" y="222"/>
			<point x="497" y="179"/>
			<point x="497" y="150" type="qcurve"/>
			<point x="497" y="108"/>
			<point x="465" y="47"/>
			<point x="412" y="7"/>
			<point x="344" y="-12"/>
			<point x="308" y="-12" type="qcurve"/>
			<point x="277" y="-12"/>
			<point x="228" y="-1"/>
			<point x="202" y="12" type="qcurve"/>
			<point x="233" y="84" type="line"/>
			<point x="253" y="71"/>
			<point x="290" y="60"/>
			<point x="316" y="60" type="qcurve"/>
			<point x="335" y="60"/>
			<point x="371" y="69"/>
			<point x="399" y="90"/>
			<point x="415" y="122"/>
			<point x="415" y="145" type="qcurve"/>
			<point x="415" y="168"/>
			<point x="395" y="198"/>
			<point x="365" y="221"/>
			<point x="330" y="241"/>
			<point x="300" y="267"/>
			<point x="280" y="303"/>
			<point x="280" y="330" type="qcurve"/>
			<point x="280" y="370"/>
			<point x="328" y="426"/>
			<point x="386" y="475"/>
			<point x="434" y="526"/>
			<point x="434" y="563" type="qcurve"/>
			<point x="434" y="622"/>
			<point x="373" y="622" type="qcurve"/>
			<point x="326" y="622"/>
			<point x="273" y="533"/>
			<point x="257" y="461" type="qcurve"/>
			<point x="162" y="18" type="line"/>
			<point x="151" y="-32"/>
			<point x="122" y="-103"/>
			<point x="77" y="-148"/>
			<point x="15" y="-168"/>
			<point x="-29" y="-168" type="qcurve"/>
			<point x="-44" y="-168"/>
			<point x="-82" y="-160"/>
			<point x="-93" y="-152" type="qcurve"/>
			<point x="-74" y="-83" type="line"/>
			<point x="-53" y="-96"/>
			<point x="-16" y="-96" type="qcurve"/>
			<point x="25" y="-96"/>
			<point x="68" y="-34"/>
			<point x="79" y="17" type="qcurve"/>
		</contour>
	</outline>
</glyph>
<glyph name="Aogonek" format="2">
	<unicode hex="0104"/>
	<advance width="500"/>
	<outline>
		<contour>
			<point x="391" y="-167" type="curve" smooth="yes"/>
			<point x="411" y="-167"/>
			<point x="429" y="-163"/>
			<point x="442" y="-157" type="curve"/>
			<point x="449" y="-104" type="line"/>
			<point x="439" y="-107"/>
			<point x="425" y="-110"/>
			<point x="414" y="-110" type="curve" smooth="yes"/>
			<point x="390" y="-110"/>
			<point x="381" y="-102"/>
			<point x="381" y="-90" type="curve" smooth="yes"/>
			<point x="381" y="-66"/>
			<point x="408" y="-46"/>
			<point x="422" y="-35" type="curve" smooth="yes"/>
			<point x="439" y="-20"/>
			<point x="455" y="-9"/>
			<point x="469" y="0" type="curve"/>
			<point x="464" y="175"/>
			<point x="455" y="421"/>
			<point x="425" y="619" type="curve"/>
			<point x="327" y="619" type="line"/>
			<point x="201" y="421"/>
			<point x="76" y="176"/>
			<point x="-13" y="0" type="curve"/>
			<point x="70" y="0" type="line"/>
			<point x="146" y="162" type="line"/>
			<point x="384" y="162" type="line"/>
			<point x="383" y="0" type="line"/>
			<point x="387" y="0" type="line"/>
			<point x="378" y="-6"/>
			<point x="368" y="-14"/>
			<point x="356" y="-24" type="curve" smooth="yes"/>
			<point x="327" y="-48"/>
			<point x="302" y="-79"/>
			<point x="302" y="-111" type="curve" smooth="yes"/>
			<point x="302" y="-144"/>
			<point x="325" y="-167"/>
		</contour>
		<contour>
			<point x="357" y="547" type="curve"/>
			<point x="368" y="468"/>
			<point x="379" y="349"/>
			<point x="381" y="230" type="curve"/>
			<point x="181" y="230" type="line"/>
			<point x="242" y="347"/>
			<point x="307" y="464"/>
		</contour>
	</outline>
</glyph>
<glyph name="lacute" format="2">
	<unicode hex="013A"/>
	<advance width="500"/>
	<outline>
		<contour>
			<point x="311" y="608" type="line"/>
			<point x="177" y="608" type="line"/>
			<point x="194" y="678" type="line"/>
			<point x="410" y="678" type="line"/>
			<point x="292" y="189" type="line"/>
			<point x="287" y="169"/>
			<point x="281" y="132"/>
			<point x="281" y="116" type="qcurve"/>
			<point x="281" y="87"/>
			<point x="309" y="59"/>
			<point x="347" y="59" type="qcurve"/>
			<point x="373" y="59"/>
			<point x="423" y="77"/>
			<point x="437" y="85" type="qcurve"/>
			<point x="443" y="15" type="line"/>
			<point x="429" y="7"/>
			<point x="366" y="-11"/>
			<point x="324" y="-11" type="qcurve"/>
			<point x="258" y="-11"/>
			<point x="199" y="46"/>
			<point x="199" y="103" type="qcurve"/>
			<point x="199" y="144"/>
			<point x="212" y="196" type="qcurve"/>
		</contour>
		<contour>
			<point x="461" y="766" type="line"/>
			<point x="307" y="711" type="line"/>
			<point x="292" y="756" type="line"/>
			<point x="442" y="830" type="line"/>
		</contour>
	</outline>
</glyph>
<glyph name="uni018D" format="2">
	<unicode hex="018D"/>
	<advance width="500"/>
	<outline>
		<contour>
			<point x="505" y="297" type="qcurve"/>
			<point x="505" y="265"/>
			<point x="484" y="195"/>
			<point x="439" y="129"/>
			<point x="368" y="73"/>
			<point x="317" y="54" type="qcurve"/>
			<point x="338" y="37"/>
			<point x="365" y="-7"/>
			<point x="365" y="-39" type="qcurve"/>
			<point x="365" y="-98"/>
			<point x="274" y="-168"/>
			<point x="179" y="-168" type="qcurve"/>
			<point x="131" y="-168"/>
			<point x="58" y="-148"/>
			<point x="38" y="-137" type="qcurve"/>
			<point x="67" y="-72" type="line"/>
			<point x="72" y="-76"/>
			<point x="95" y="-86"/>
			<point x="127" y="-96"/>
			<point x="165" y="-103"/>
			<point x="185" y="-103" type="qcurve"/>
			<point x="230" y="-103"/>
			<point x="286" y="-77"/>
			<point x="286" y="-50" type="qcurve"/>
			<point x="286" y="-20"/>
			<point x="250" y="13"/>
			<point x="227" y="29" type="qcurve"/>
			<point x="192" y="54"/>
			<point x="144" y="97"/>
			<point x="114" y="142"/>
			<point x="101" y="194"/>
			<point x="101" y="227" type="qcurve"/>
			<point x="101" y="272"/>
			<point x="129" y="360"/>
			<point x="189" y="431"/>
			<point x="282" y="475"/>
			<point x="346" y="475" type="qcurve"/>
			<point x="387" y="475"/>
			<point x="447" y="448"/>
			<point x="486" y="400"/>
			<point x="505" y="335"/>
		</contour>
		<contour>
			<point x="182" y="219" type="qcurve"/>
			<point x="182" y="171"/>
			<point x="229" y="116"/>
			<point x="259" y="96" type="qcurve"/>
			<point x="304" y="110"/>
			<point x="367" y="155"/>
			<point x="406" y="209"/>
			<point x="424" y="267"/>
			<point x="424" y="293" type="qcurve"/>
			<point x="424" y="314"/>
			<point x="414" y="354"/>
			<point x="392" y="385"/>
			<point x="359" y="404"/>
			<point x="335" y="404" type="qcurve"/>
			<point x="297" y="404"/>
			<point x="239" y="370"/>
			<point x="201" y="317"/>
			<point x="182" y="251"/>
		</contour>
	</outline>
</glyph>
<glyph name="uni0194" format="2">
	<unicode hex="0194"/>
	<advance width="500"/>
	<outline>
		<contour>
			<point x="615" y="619" type="line"/>
			<point x="582" y="563"/>
			<point x="502" y="435"/>
			<point x="422" y="309"/>
			<point x="347" y="196"/>
			<point x="318" y="156" type="qcurve"/>
			<point x="330" y="127"/>
			<point x="346" y="70"/>
			<point x="356" y="21"/>
			<point x="361" y="-18"/>
			<point x="361" y="-30" type="qcurve"/>
			<point x="361" y="-56"/>
			<point x="342" y="-104"/>
			<point x="304" y="-142"/>
			<point x="250" y="-164"/>
			<point x="215" y="-164" type="qcurve"/>
			<point x="181" y="-164"/>
			<point x="139" y="-144"/>
			<point x="115" y="-113"/>
			<point x="107" y="-78"/>
			<point x="107" y="-63" type="qcurve"/>
			<point x="107" y="-20"/>
			<point x="172" y="87"/>
			<point x="236" y="161" type="qcurve"/>
			<point x="221" y="219"/>
			<point x="191" y="348"/>
			<point x="165" y="471"/>
			<point x="145" y="580"/>
			<point x="141" y="619" type="qcurve"/>
			<point x="227" y="619" type="line"/>
			<point x="232" y="578"/>
			<point x="245" y="484"/>
			<point x="261" y="385"/>
			<point x="280" y="286"/>
			<point x="290" y="240" type="qcurve"/>
			<point x="344" y="317"/>
			<point x="469" y="516"/>
			<point x="528" y="619" type="qcurve"/>
		</contour>
		<contour>
			<point x="284" y="-34" type="qcurve"/>
			<point x="284" y="-12"/>
			<point x="275" y="37"/>
			<point x="262" y="82" type="qcurve"/>
			<point x="218" y="35"/>
			<point x="184" y="-35"/>
			<point x="184" y="-53" type="qcurve"/>
			<point x="184" y="-68"/>
			<point x="199" y="-96"/>
			<point x="225" y="-96" type="qcurve"/>
			<point x="243" y="-96"/>
			<point x="266" y="-83"/>
			<point x="279" y="-63"/>
			<point x="284" y="-42"/>
		</contour>
	</outline>
</glyph>
<glyph name="ohorn" format="2">
	<unicode hex="01A1"/>
	<advance width="500"/>
	<outline>
		<contour>
			<point x="339" y="475" type="qcurve"/>
			<point x="409" y="475"/>
			<point x="447" y="430" type="qcurve"/>
			<point x="465" y="444"/>
			<point x="486" y="477"/>
			<point x="497" y="512"/>
			<point x="502" y="546"/>
			<point x="504" y="561" type="qcurve"/>
			<point x="586" y="561" type="line"/>
			<point x="580" y="501"/>
			<point x="525" y="406"/>
			<point x="477" y="376" type="qcurve"/>
			<point x="482" y="362"/>
			<point x="487" y="332"/>
			<point x="487" y="313" type="qcurve"/>
			<point x="487" y="261"/>
			<point x="458" y="147"/>
			<point x="396" y="51"/>
			<point x="298" y="-11"/>
			<point x="228" y="-11" type="qcurve"/>
			<point x="159" y="-11"/>
			<point x="80" y="75"/>
			<point x="80" y="151" type="qcurve"/>
			<point x="80" y="203"/>
			<point x="109" y="317"/>
			<point x="171" y="413"/>
			<point x="269" y="475"/>
		</contour>
		<contour>
			<point x="242" y="63" type="qcurve"/>
			<point x="280" y="63"/>
			<point x="341" y="108"/>
			<point x="383" y="178"/>
			<point x="405" y="265"/>
			<point x="405" y="306" type="qcurve"/>
			<point x="405" y="351"/>
			<point x="368" y="402"/>
			<point x="325" y="402" type="qcurve"/>
			<point x="287" y="402"/>
			<point x="227" y="357"/>
			<point x="185" y="286"/>
			<point x="163" y="199"/>
			<point x="163" y="158" type="qcurve"/>
			<point x="163" y="113"/>
			<point x="199" y="63"/>
		</contour>
	</outline>
</glyph>
<glyph name="uni01A3" format="2">
	<unicode hex="01A3"/>
	<advance width="500"/>
	<outline>
		<contour>
			<point x="54" y="137" type="qcurve"/>
			<point x="54" y="163"/>
			<point x="62" y="234"/>
			<point x="80" y="309"/>
			<point x="109" y="382"/>
			<point x="151" y="440"/>
			<point x="207" y="475"/>
			<point x="244" y="475" type="qcurve"/>
			<point x="265" y="475"/>
			<point x="304" y="459"/>
			<point x="319" y="441" type="qcurve"/>
			<point x="337" y="453"/>
			<point x="395" y="475"/>
			<point x="421" y="475" type="qcurve"/>
			<point x="475" y="475"/>
			<point x="513" y="418"/>
			<point x="513" y="374" type="qcurve"/>
			<point x="513" y="348"/>
			<point x="503" y="282"/>
			<point x="497" y="258" type="qcurve"/>
			<point x="395" y="-165" type="line"/>
			<point x="316" y="-165" type="line"/>
			<point x="414" y="240" type="line"/>
			<point x="423" y="276"/>
			<point x="435" y="334"/>
			<point x="435" y="355" type="qcurve"/>
			<point x="435" y="405"/>
			<point x="395" y="405" type="qcurve"/>
			<point x="384" y="405"/>
			<point x="355" y="394"/>
			<point x="344" y="385" type="qcurve"/>
			<point x="349" y="357"/>
			<point x="349" y="328" type="qcurve"/>
			<point x="349" y="302"/>
			<point x="341" y="231"/>
			<point x="323" y="155"/>
			<point x="294" y="82"/>
			<point x="252" y="24"/>
			<point x="196" y="-11"/>
			<point x="160" y="-11" type="qcurve"/>
			<point x="139" y="-11"/>
			<point x="101" y="3"/>
			<point x="71" y="38"/>
			<point x="54" y="95"/>
		</contour>
		<contour>
			<point x="232" y="405" type="qcurve"/>
			<point x="206" y="405"/>
			<point x="168" y="345"/>
			<point x="142" y="259"/>
			<point x="130" y="164"/>
			<point x="130" y="130" type="qcurve"/>
			<point x="130" y="59"/>
			<point x="171" y="59" type="qcurve"/>
			<point x="197" y="59"/>
			<point x="235" y="119"/>
			<point x="260" y="205"/>
			<point x="272" y="299"/>
			<point x="272" y="333" type="qcurve"/>
			<point x="272" y="368"/>
			<point x="254" y="405"/>
		</contour>
	</outline>
	<guideline y="405"/>
</glyph>
<glyph name="uni01A7" format="2">
	<unicode hex="01A7"/>
	<advance width="500"/>
	<outline>
		<contour>
			<point x="263" y="-13" type="qcurve"/>
			<point x="166" y="-13"/>
			<point x="77" y="64"/>
			<point x="77" y="130" type="qcurve"/>
			<point x="77" y="181"/>
			<point x="115" y="253"/>
			<point x="178" y="303"/>
			<point x="258" y="337"/>
			<point x="299" y="351" type="qcurve"/>
			<point x="335" y="362"/>
			<point x="392" y="387"/>
			<point x="432" y="418"/>
			<point x="453" y="459"/>
			<point x="453" y="487" type="qcurve"/>
			<point x="453" y="521"/>
			<point x="408" y="562"/>
			<point x="360" y="562" type="qcurve"/>
			<point x="306" y="562"/>
			<point x="232" y="534"/>
			<point x="210" y="522" type="qcurve"/>
			<point x="198" y="593" type="line"/>
			<point x="210" y="600"/>
			<point x="249" y="614"/>
			<point x="295" y="626"/>
			<point x="345" y="633"/>
			<point x="368" y="633" type="qcurve"/>
			<point x="454" y="633"/>
			<point x="534" y="558"/>
			<point x="534" y="499" type="qcurve"/>
			<point x="534" y="452"/>
			<point x="504" y="386"/>
			<point x="452" y="338"/>
			<point x="379" y="303"/>
			<point x="336" y="288" type="qcurve"/>
			<point x="302" y="276"/>
			<point x="238" y="251"/>
			<point x="189" y="218"/>
			<point x="159" y="172"/>
			<point x="159" y="139" type="qcurve"/>
			<point x="159" y="94"/>
			<point x="219" y="58"/>
			<point x="270" y="58" type="qcurve"/>
			<point x="335" y="58"/>
			<point x="418" y="86"/>
			<point x="438" y="96" type="qcurve"/>
			<point x="445" y="23" type="line"/>
			<point x="437" y="18"/>
			<point x="403" y="6"/>
			<point x="355" y="-5"/>
			<point x="295" y="-13"/>
		</contour>
	</outline>
</glyph>
<glyph name="uni01AD" format="2">
	<unicode hex="01AD"/>
	<advance width="500"/>
	<outline>
		<contour>
			<point x="427" y="13" type="line"/>
			<point x="398" y="3"/>
			<point x="335" y="-11"/>
			<point x="300" y="-11" type="qcurve"/>
			<point x="271" y="-11"/>
			<point x="222" y="1"/>
			<point x="184" y="28"/>
			<point x="163" y="74"/>
			<point x="163" y="109" type="qcurve"/>
			<point x="163" y="131"/>
			<point x="171" y="179"/>
			<point x="177" y="204" type="qcurve"/>
			<point x="223" y="395" type="line"/>
			<point x="125" y="395" type="line"/>
			<point x="142" y="464" type="line"/>
			<point x="240" y="464" type="line"/>
			<point x="250" y="506" type="line"/>
			<point x="261" y="551"/>
			<point x="295" y="621"/>
			<point x="348" y="668"/>
			<point x="422" y="693"/>
			<point x="472" y="693" type="qcurve"/>
			<point x="506" y="693"/>
			<point x="566" y="681"/>
			<point x="581" y="673" type="qcurve"/>
			<point x="550" y="609" type="line"/>
			<point x="542" y="612"/>
			<point x="503" y="623"/>
			<point x="465" y="623" type="qcurve"/>
			<point x="433" y="623"/>
			<point x="389" y="606"/>
			<point x="358" y="575"/>
			<point x="339" y="531"/>
			<point x="332" y="505" type="qcurve"/>
			<point x="322" y="464" type="line"/>
			<point x="501" y="464" type="line"/>
			<point x="484" y="395" type="line"/>
			<point x="305" y="395" type="line"/>
			<point x="258" y="196" type="line"/>
			<point x="253" y="177"/>
			<point x="246" y="141"/>
			<point x="246" y="124" type="qcurve"/>
			<point x="246" y="86"/>
			<point x="284" y="61"/>
			<point x="316" y="61" type="qcurve"/>
			<point x="347" y="61"/>
			<point x="403" y="74"/>
			<point x="429" y="84" type="qcurve"/>
		</contour>
	</outline>
</glyph>
<glyph name="uhorn" format="2">
	<unicode hex="01B0"/>
	<advance width="500"/>
	<outline>
		<contour>
			<point x="455" y="464" type="line"/>
			<point x="475" y="464"/>
			<point x="500" y="483"/>
			<point x="515" y="513"/>
			<point x="521" y="547"/>
			<point x="522" y="562" type="qcurve"/>
			<point x="603" y="562" type="line"/>
			<point x="601" y="534"/>
			<point x="585" y="482"/>
			<point x="554" y="440"/>
			<point x="507" y="411"/>
			<point x="474" y="405" type="qcurve"/>
			<point x="418" y="171" type="line"/>
			<point x="413" y="150"/>
			<point x="407" y="112"/>
			<point x="407" y="91" type="qcurve"/>
			<point x="407" y="70"/>
			<point x="415" y="30"/>
			<point x="423" y="5" type="qcurve"/>
			<point x="350" y="-5" type="line"/>
			<point x="345" y="5"/>
			<point x="337" y="30"/>
			<point x="334" y="44" type="qcurve"/>
			<point x="316" y="26"/>
			<point x="253" y="-10"/>
			<point x="205" y="-10" type="qcurve"/>
			<point x="169" y="-10"/>
			<point x="119" y="13"/>
			<point x="88" y="52"/>
			<point x="75" y="105"/>
			<point x="75" y="135" type="qcurve"/>
			<point x="75" y="158"/>
			<point x="83" y="204"/>
			<point x="88" y="227" type="qcurve"/>
			<point x="146" y="464" type="line"/>
			<point x="228" y="464" type="line"/>
			<point x="175" y="245" type="line"/>
			<point x="170" y="224"/>
			<point x="157" y="169"/>
			<point x="157" y="141" type="qcurve"/>
			<point x="157" y="125"/>
			<point x="163" y="96"/>
			<point x="177" y="73"/>
			<point x="202" y="60"/>
			<point x="221" y="60" type="qcurve"/>
			<point x="256" y="60"/>
			<point x="311" y="93"/>
			<point x="329" y="115" type="qcurve"/>
			<point x="330" y="129"/>
			<point x="333" y="160"/>
			<point x="338" y="178" type="qcurve"/>
			<point x="406" y="464" type="line"/>
		</contour>
	</outline>
</glyph>
<glyph name="uni01B1" format="2">
	<unicode hex="01B1"/>
	<advance width="500"/>
	<outline>
		<contour>
			<point x="595" y="549" type="line"/>
			<point x="493" y="549" type="line"/>
			<point x="510" y="512"/>
			<point x="528" y="422"/>
			<point x="528" y="374" type="qcurve"/>
			<point x="528" y="281"/>
			<point x="481" y="137"/>
			<point x="402" y="38"/>
			<point x="299" y="-14"/>
			<point x="244" y="-14" type="qcurve"/>
			<point x="164" y="-14"/>
			<point x="66" y="78"/>
			<point x="66" y="175" type="qcurve"/>
			<point x="66" y="220"/>
			<point x="89" y="320"/>
			<point x="131" y="419"/>
			<point x="192" y="511"/>
			<point x="230" y="549" type="qcurve"/>
			<point x="131" y="549" type="line"/>
			<point x="148" y="619" type="line"/>
			<point x="346" y="619" type="line"/>
			<point x="333" y="568" type="line"/>
			<point x="296" y="539"/>
			<point x="231" y="448"/>
			<point x="182" y="342"/>
			<point x="154" y="233"/>
			<point x="154" y="187" type="qcurve"/>
			<point x="154" y="123"/>
			<point x="210" y="62"/>
			<point x="258" y="62" type="qcurve"/>
			<point x="295" y="62"/>
			<point x="363" y="105"/>
			<point x="414" y="189"/>
			<point x="445" y="313"/>
			<point x="445" y="394" type="qcurve"/>
			<point x="445" y="447"/>
			<point x="423" y="539"/>
			<point x="401" y="568" type="qcurve"/>
			<point x="413" y="619" type="line"/>
			<point x="612" y="619" type="line"/>
		</contour>
	</outline>
</glyph>
<glyph name="uni01B5" format="2">
	<unicode hex="01B5"/>
	<advance width="500"/>
	<outline>
		<contour>
			<point x="556" y="550" type="line"/>
			<point x="520" y="512"/>
			<point x="428" y="412"/>
			<point x="379" y="355" type="qcurve"/>
			<point x="490" y="355" type="line"/>
			<point x="474" y="289" type="line"/>
			<point x="321" y="289" type="line"/>
			<point x="271" y="230"/>
			<point x="180" y="118"/>
			<point x="146" y="70" type="qcurve"/>
			<point x="450" y="70" type="line"/>
			<point x="434" y="0" type="line"/>
			<point x="36" y="0" type="line"/>
			<point x="52" y="68" type="line"/>
			<point x="94" y="122"/>
			<point x="183" y="233"/>
			<point x="230" y="289" type="qcurve"/>
			<point x="138" y="289" type="line"/>
			<point x="154" y="355" type="line"/>
			<point x="286" y="355" type="line"/>
			<point x="331" y="408"/>
			<point x="418" y="505"/>
			<point x="460" y="549" type="qcurve"/>
			<point x="179" y="549" type="line"/>
			<point x="196" y="619" type="line"/>
			<point x="572" y="619" type="line"/>
		</contour>
	</outline>
</glyph>
<glyph name="uni01BF" format="2">
	<unicode hex="01BF"/>
	<advance width="500"/>
	<outline>
		<contour>
			<point x="503" y="310" type="qcurve"/>
			<point x="503" y="185"/>
			<point x="322" y="2"/>
			<point x="126" y="-48" type="qcurve"/>
			<point x="98" y="-165" type="line"/>
			<point x="15" y="-165" type="line"/>
			<point x="160" y="438" type="line"/>
			<point x="187" y="449"/>
			<point x="282" y="474"/>
			<point x="339" y="474" type="qcurve"/>
			<point x="383" y="474"/>
			<point x="446" y="449"/>
			<point x="485" y="404"/>
			<point x="503" y="344"/>
		</contour>
		<contour>
			<point x="321" y="402" type="qcurve"/>
			<point x="287" y="402"/>
			<point x="243" y="392"/>
			<point x="230" y="387" type="qcurve"/>
			<point x="145" y="27" type="line"/>
			<point x="219" y="49"/>
			<point x="324" y="107"/>
			<point x="390" y="176"/>
			<point x="420" y="256"/>
			<point x="420" y="301" type="qcurve"/>
			<point x="420" y="320"/>
			<point x="412" y="356"/>
			<point x="390" y="384"/>
			<point x="352" y="402"/>
		</contour>
	</outline>
</glyph>
<glyph name="uni01D5" format="2">
	<unicode hex="01D5"/>
	<advance width="500"/>
	<outline>
		<contour>
			<point x="237" y="-13" type="qcurve"/>
			<point x="196" y="-13"/>
			<point x="138" y="15"/>
			<point x="99" y="62"/>
			<point x="81" y="124"/>
			<point x="81" y="158" type="qcurve"/>
			<point x="81" y="188"/>
			<point x="89" y="222" type="qcurve"/>
			<point x="179" y="599" type="line"/>
			<point x="261" y="599" type="line"/>
			<point x="171" y="223" type="line"/>
			<point x="163" y="189"/>
			<point x="163" y="160" type="qcurve"/>
			<point x="163" y="139"/>
			<point x="172" y="102"/>
			<point x="192" y="74"/>
			<point x="225" y="58"/>
			<point x="249" y="58" type="qcurve"/>
			<point x="276" y="58"/>
			<point x="320" y="71"/>
			<point x="356" y="105"/>
			<point x="384" y="165"/>
			<point x="396" y="212" type="qcurve"/>
			<point x="489" y="599" type="line"/>
			<point x="571" y="599" type="line"/>
			<point x="476" y="202" type="line"/>
			<point x="464" y="151"/>
			<point x="429" y="71"/>
			<point x="374" y="16"/>
			<point x="294" y="-13"/>
		</contour>
		<contour>
			<point x="310" y="829" type="line"/>
			<point x="537" y="829" type="line"/>
			<point x="524" y="772" type="line"/>
			<point x="297" y="772" type="line"/>
		</contour>
		<contour>
			<point x="295" y="647" type="qcurve"/>
			<point x="277" y="647"/>
			<point x="252" y="670"/>
			<point x="252" y="689" type="qcurve"/>
			<point x="252" y="715"/>
			<point x="285" y="745"/>
			<point x="305" y="745" type="qcurve"/>
			<point x="323" y="745"/>
			<point x="349" y="722"/>
			<point x="349" y="702" type="qcurve"/>
			<point x="349" y="678"/>
			<point x="314" y="647"/>
		</contour>
		<contour>
			<point x="476" y="647" type="qcurve"/>
			<point x="458" y="647"/>
			<point x="434" y="670"/>
			<point x="434" y="689" type="qcurve"/>
			<point x="434" y="715"/>
			<point x="466" y="745"/>
			<point x="486" y="745" type="qcurve"/>
			<point x="504" y="745"/>
			<point x="530" y="722"/>
			<point x="530" y="702" type="qcurve"/>
			<point x="530" y="678"/>
			<point x="495" y="647"/>
		</contour>
	</outline>
	<guideline y="599"/>
</glyph>
<glyph name="uni01DE" format="2">
	<unicode hex="01DE"/>
	<advance width="500"/>
	<outline>
		<contour>
			<point x="305" y="829" type="line"/>
			<point x="532" y="829" type="line"/>
			<point x="519" y="772" type="line"/>
			<point x="292" y="772" type="line"/>
		</contour>
		<contour>
			<point x="290" y="647" type="qcurve"/>
			<point x="272" y="647"/>
			<point x="247" y="670"/>
			<point x="247" y="689" type="qcurve"/>
			<point x="247" y="715"/>
			<point x="280" y="745"/>
			<point x="300" y="745" type="qcurve"/>
			<point x="318" y="745"/>
			<point x="344" y="722"/>
			<point x="344" y="702" type="qcurve"/>
			<point x="344" y="678"/>
			<point x="309" y="647"/>
		</contour>
		<contour>
			<point x="471" y="647" type="qcurve"/>
			<point x="453" y="647"/>
			<point x="429" y="670"/>
			<point x="429" y="689" type="qcurve"/>
			<point x="429" y="715"/>
			<point x="461" y="745"/>
			<point x="481" y="745" type="qcurve"/>
			<point x="499" y="745"/>
			<point x="525" y="722"/>
			<point x="525" y="702" type="qcurve"/>
			<point x="525" y="678"/>
			<point x="490" y="647"/>
		</contour>
		<contour>
			<point x="383" y="0" type="line"/>
			<point x="384" y="162" type="line"/>
			<point x="146" y="162" type="line"/>
			<point x="70" y="0" type="line"/>
			<point x="-13" y="0" type="line"/>
			<point x="20" y="66"/>
			<point x="98" y="214"/>
			<point x="184" y="368"/>
			<point x="276" y="525"/>
			<point x="323" y="599" type="qcurve"/>
			<point x="421" y="599" type="line"/>
			<point x="432" y="525"/>
			<point x="449" y="368"/>
			<point x="460" y="214"/>
			<point x="467" y="66"/>
			<point x="469" y="0" type="qcurve"/>
		</contour>
		<contour>
			<point x="353" y="527" type="qcurve"/>
			<point x="315" y="464"/>
			<point x="227" y="318"/>
			<point x="181" y="230" type="qcurve"/>
			<point x="381" y="230" type="line"/>
			<point x="379" y="320"/>
			<point x="361" y="467"/>
		</contour>
	</outline>
	<guideline y="599"/>
</glyph>
<glyph name="uni01E0" format="2">
	<unicode hex="01E0"/>
	<advance width="500"/>
	<outline>
		<contour>
			<point x="388" y="647" type="qcurve"/>
			<point x="369" y="647"/>
			<point x="344" y="670"/>
			<point x="344" y="690" type="qcurve"/>
			<point x="344" y="716"/>
			<point x="377" y="747"/>
			<point x="398" y="747" type="qcurve"/>
			<point x="416" y="747"/>
			<point x="442" y="723"/>
			<point x="442" y="703" type="qcurve"/>
			<point x="442" y="678"/>
			<point x="407" y="647"/>
		</contour>
		<contour>
			<point x="310" y="829" type="line"/>
			<point x="537" y="829" type="line"/>
			<point x="523" y="772" type="line"/>
			<point x="296" y="772" type="line"/>
		</contour>
		<contour>
			<point x="383" y="0" type="line"/>
			<point x="384" y="162" type="line"/>
			<point x="146" y="162" type="line"/>
			<point x="70" y="0" type="line"/>
			<point x="-13" y="0" type="line"/>
			<point x="20" y="66"/>
			<point x="98" y="214"/>
			<point x="184" y="368"/>
			<point x="276" y="525"/>
			<point x="323" y="599" type="qcurve"/>
			<point x="421" y="599" type="line"/>
			<point x="432" y="525"/>
			<point x="449" y="368"/>
			<point x="460" y="214"/>
			<point x="467" y="66"/>
			<point x="469" y="0" type="qcurve"/>
		</contour>
		<contour>
			<point x="353" y="527" type="qcurve"/>
			<point x="315" y="464"/>
			<point x="227" y="318"/>
			<point x="181" y="230" type="qcurve"/>
			<point x="381" y="230" type="line"/>
			<point x="379" y="320"/>
			<point x="361" y="467"/>
		</contour>
	</outline>
</glyph>
<glyph name="uni01F7" format="2">
	<unicode hex="01F7"/>
	<advance width="500"/>
	<outline>
		<contour>
			<point x="99" y="-165" type="line"/>
			<point x="18" y="-165" type="line"/>
			<point x="197" y="584" type="line"/>
			<point x="210" y="591"/>
			<point x="248" y="606"/>
			<point x="293" y="618"/>
			<point x="340" y="625"/>
			<point x="361" y="625" type="qcurve"/>
			<point x="449" y="625"/>
			<point x="546" y="545"/>
			<point x="546" y="463" type="qcurve"/>
			<point x="546" y="372"/>
			<point x="482" y="224"/>
			<point x="371" y="109"/>
			<point x="222" y="25"/>
			<point x="138" y="-2" type="qcurve"/>
		</contour>
		<contour>
			<point x="157" y="77" type="line"/>
			<point x="210" y="96"/>
			<point x="319" y="164"/>
			<point x="407" y="260"/>
			<point x="463" y="381"/>
			<point x="463" y="455" type="qcurve"/>
			<point x="463" y="506"/>
			<point x="407" y="555"/>
			<point x="355" y="555" type="qcurve"/>
			<point x="323" y="555"/>
			<point x="281" y="543"/>
			<point x="270" y="538" type="qcurve"/>
		</contour>
	</outline>
</glyph>
<glyph name="uni0221" format="2">
	<unicode hex="0221"/>
	<advance width="500"/>
	<outline>
		<contour>
			<point x="223" y="9" type="line"/>
			<point x="192" y="-8"/>
			<point x="161" y="-8" type="qcurve"/>
			<point x="112" y="-8"/>
			<point x="48" y="70"/>
			<point x="48" y="148" type="qcurve"/>
			<point x="48" y="211"/>
			<point x="81" y="328"/>
			<point x="143" y="419"/>
			<point x="234" y="474"/>
			<point x="291" y="474" type="qcurve"/>
			<point x="293" y="474"/>
			<point x="305" y="474"/>
			<point x="318" y="473"/>
			<point x="331" y="472"/>
			<point x="333" y="471" type="qcurve"/>
			<point x="383" y="679" type="line"/>
			<point x="469" y="693" type="line"/>
			<point x="318" y="64" type="line"/>
			<point x="338" y="78"/>
			<point x="379" y="88"/>
			<point x="396" y="88" type="qcurve"/>
			<point x="422" y="88"/>
			<point x="459" y="71"/>
			<point x="482" y="43"/>
			<point x="492" y="6"/>
			<point x="492" y="-14" type="qcurve"/>
			<point x="492" y="-45"/>
			<point x="470" y="-100"/>
			<point x="431" y="-141"/>
			<point x="375" y="-165"/>
			<point x="341" y="-165" type="qcurve"/>
			<point x="245" y="-165"/>
			<point x="225" y="-88" type="qcurve"/>
			<point x="140" y="-168" type="line"/>
			<point x="103" y="-126" type="line"/>
			<point x="218" y="-18" type="line"/>
		</contour>
		<contour>
			<point x="186" y="63" type="qcurve"/>
			<point x="198" y="63"/>
			<point x="225" y="68"/>
			<point x="239" y="76" type="qcurve"/>
			<point x="318" y="400" type="line"/>
			<point x="317" y="401"/>
			<point x="305" y="402"/>
			<point x="292" y="404"/>
			<point x="280" y="405"/>
			<point x="279" y="405" type="qcurve"/>
			<point x="241" y="405"/>
			<point x="185" y="357"/>
			<point x="148" y="285"/>
			<point x="130" y="200"/>
			<point x="130" y="162" type="qcurve"/>
			<point x="130" y="113"/>
			<point x="156" y="63"/>
		</contour>
		<contour>
			<point x="378" y="28" type="qcurve"/>
			<point x="355" y="28"/>
			<point x="321" y="8"/>
			<point x="302" y="-8" type="qcurve"/>
			<point x="296" y="-30" type="line"/>
			<point x="295" y="-36"/>
			<point x="294" y="-47"/>
			<point x="294" y="-52" type="qcurve"/>
			<point x="294" y="-75"/>
			<point x="320" y="-104"/>
			<point x="346" y="-104" type="qcurve"/>
			<point x="363" y="-104"/>
			<point x="392" y="-91"/>
			<point x="414" y="-68"/>
			<point x="427" y="-37"/>
			<point x="427" y="-19" type="qcurve"/>
			<point x="427" y="2"/>
			<point x="404" y="28"/>
		</contour>
	</outline>
</glyph>
<glyph name="uni0222" format="2">
	<unicode hex="0222"/>
	<advance width="500"/>
	<outline>
		<contour>
			<point x="538" y="619" type="curve"/>
			<point x="460" y="619" type="line"/>
			<point x="453" y="471"/>
			<point x="420" y="371"/>
			<point x="325" y="371" type="curve" smooth="yes"/>
			<point x="279" y="371"/>
			<point x="254" y="395"/>
			<point x="254" y="440" type="curve" smooth="yes"/>
			<point x="254" y="492"/>
			<point x="280" y="560"/>
			<point x="305" y="619" type="curve"/>
			<point x="226" y="619" type="line"/>
			<point x="198" y="555"/>
			<point x="171" y="485"/>
			<point x="171" y="434" type="curve" smooth="yes"/>
			<point x="171" y="397"/>
			<point x="183" y="364"/>
			<point x="210" y="346" type="curve"/>
			<point x="119" y="315"/>
			<point x="61" y="238"/>
			<point x="61" y="139" type="curve" smooth="yes"/>
			<point x="61" y="63"/>
			<point x="113" y="-4"/>
			<point x="236" y="-4" type="curve" smooth="yes"/>
			<point x="421" y="-4"/>
			<point x="498" y="104"/>
			<point x="498" y="222" type="curve" smooth="yes"/>
			<point x="498" y="281"/>
			<point x="467" y="317"/>
			<point x="426" y="338" type="curve"/>
			<point x="522" y="380"/>
			<point x="536" y="527"/>
		</contour>
		<contour>
			<point x="307" y="299" type="curve" smooth="yes"/>
			<point x="369" y="299"/>
			<point x="416" y="271"/>
			<point x="416" y="218" type="curve" smooth="yes"/>
			<point x="416" y="115"/>
			<point x="346" y="67"/>
			<point x="252" y="67" type="curve" smooth="yes"/>
			<point x="188" y="67"/>
			<point x="143" y="94"/>
			<point x="143" y="144" type="curve" smooth="yes"/>
			<point x="143" y="247"/>
			<point x="223" y="299"/>
		</contour>
	</outline>
</glyph>
<glyph name="uni0224" format="2">
	<unicode hex="0224"/>
	<advance width="500"/>
	<outline>
		<contour>
			<point x="556" y="550" type="line"/>
			<point x="514" y="506"/>
			<point x="405" y="385"/>
			<point x="291" y="254"/>
			<point x="185" y="124"/>
			<point x="146" y="70" type="qcurve"/>
			<point x="450" y="70" type="line"/>
			<point x="434" y="0" type="line"/>
			<point x="425" y="-40"/>
			<point x="403" y="-102"/>
			<point x="368" y="-145"/>
			<point x="312" y="-167"/>
			<point x="269" y="-167" type="qcurve"/>
			<point x="256" y="-167"/>
			<point x="221" y="-160"/>
			<point x="213" y="-155" type="qcurve"/>
			<point x="235" y="-93" type="line"/>
			<point x="240" y="-95"/>
			<point x="259" y="-100"/>
			<point x="272" y="-100" type="qcurve"/>
			<point x="309" y="-100"/>
			<point x="342" y="-57"/>
			<point x="350" y="-15" type="qcurve"/>
			<point x="353" y="0" type="line"/>
			<point x="36" y="0" type="line"/>
			<point x="52" y="68" type="line"/>
			<point x="99" y="129"/>
			<point x="202" y="256"/>
			<point x="307" y="380"/>
			<point x="412" y="498"/>
			<point x="460" y="549" type="qcurve"/>
			<point x="179" y="549" type="line"/>
			<point x="196" y="619" type="line"/>
			<point x="572" y="619" type="line"/>
		</contour>
	</outline>
</glyph>
<glyph name="uni0225" format="2">
	<unicode hex="0225"/>
	<advance width="500"/>
	<outline>
		<contour>
			<point x="494" y="405" type="line"/>
			<point x="468" y="382"/>
			<point x="380" y="297"/>
			<point x="285" y="199"/>
			<point x="197" y="104"/>
			<point x="171" y="70" type="qcurve"/>
			<point x="421" y="70" type="line"/>
			<point x="405" y="-2" type="line"/>
			<point x="395" y="-43"/>
			<point x="374" y="-105"/>
			<point x="339" y="-146"/>
			<point x="286" y="-167"/>
			<point x="245" y="-167" type="qcurve"/>
			<point x="229" y="-167"/>
			<point x="194" y="-160"/>
			<point x="187" y="-155" type="qcurve"/>
			<point x="208" y="-96" type="line"/>
			<point x="213" y="-98"/>
			<point x="233" y="-103"/>
			<point x="246" y="-103" type="qcurve"/>
			<point x="283" y="-103"/>
			<point x="316" y="-59"/>
			<point x="324" y="-21" type="qcurve"/>
			<point x="329" y="0" type="line"/>
			<point x="58" y="0" type="line"/>
			<point x="71" y="54" type="line"/>
			<point x="98" y="93"/>
			<point x="179" y="188"/>
			<point x="268" y="283"/>
			<point x="354" y="367"/>
			<point x="386" y="395" type="qcurve"/>
			<point x="165" y="395" type="line"/>
			<point x="183" y="464" type="line"/>
			<point x="509" y="464" type="line"/>
		</contour>
	</outline>
</glyph>
<glyph name="uni022C" format="2">
	<unicode hex="022C"/>
	<advance width="500"/>
	<outline>
		<contour>
			<point x="369" y="542" type="qcurve"/>
			<point x="320" y="542"/>
			<point x="243" y="471"/>
			<point x="191" y="363"/>
			<point x="163" y="236"/>
			<point x="163" y="180" type="qcurve"/>
			<point x="163" y="114"/>
			<point x="211" y="58"/>
			<point x="254" y="58" type="qcurve"/>
			<point x="303" y="58"/>
			<point x="379" y="129"/>
			<point x="431" y="237"/>
			<point x="458" y="364"/>
			<point x="458" y="420" type="qcurve"/>
			<point x="458" y="485"/>
			<point x="411" y="542"/>
		</contour>
		<contour>
			<point x="379" y="613" type="qcurve"/>
			<point x="451" y="613"/>
			<point x="541" y="523"/>
			<point x="541" y="426" type="qcurve"/>
			<point x="541" y="390"/>
			<point x="527" y="297"/>
			<point x="497" y="199"/>
			<point x="450" y="105"/>
			<point x="384" y="32"/>
			<point x="298" y="-13"/>
			<point x="244" y="-13" type="qcurve"/>
			<point x="171" y="-13"/>
			<point x="80" y="77"/>
			<point x="80" y="174" type="qcurve"/>
			<point x="80" y="210"/>
			<point x="94" y="303"/>
			<point x="124" y="401"/>
			<point x="172" y="495"/>
			<point x="238" y="568"/>
			<point x="325" y="613"/>
		</contour>
		<contour>
			<point x="405" y="722" type="qcurve"/>
			<point x="415" y="717"/>
			<point x="436" y="706"/>
			<point x="447" y="706" type="qcurve"/>
			<point x="465" y="706"/>
			<point x="488" y="731"/>
			<point x="497" y="744" type="qcurve"/>
			<point x="534" y="720" type="line"/>
			<point x="516" y="685"/>
			<point x="473" y="651"/>
			<point x="435" y="651" type="qcurve"/>
			<point x="420" y="651"/>
			<point x="394" y="661"/>
			<point x="381" y="669" type="qcurve"/>
			<point x="371" y="674"/>
			<point x="350" y="685"/>
			<point x="339" y="685" type="qcurve"/>
			<point x="321" y="685"/>
			<point x="298" y="660"/>
			<point x="289" y="647" type="qcurve"/>
			<point x="252" y="671" type="line"/>
			<point x="270" y="706"/>
			<point x="313" y="740"/>
			<point x="351" y="740" type="qcurve"/>
			<point x="366" y="740"/>
			<point x="392" y="730"/>
		</contour>
		<contour>
			<point x="313" y="829" type="line"/>
			<point x="540" y="829" type="line"/>
			<point x="527" y="772" type="line"/>
			<point x="300" y="772" type="line"/>
		</contour>
	</outline>
</glyph>
<glyph name="dotlessj" format="2">
	<unicode hex="0237"/>
	<advance width="500"/>
	<outline>
		<contour>
			<point x="191" y="395" type="line"/>
			<point x="207" y="464" type="line"/>
			<point x="477" y="464" type="line"/>
			<point x="367" y="6" type="line"/>
			<point x="344" y="-90"/>
			<point x="236" y="-168"/>
			<point x="154" y="-168" type="qcurve"/>
			<point x="79" y="-168"/>
			<point x="21" y="-132" type="qcurve"/>
			<point x="53" y="-63" type="line"/>
			<point x="63" y="-71"/>
			<point x="90" y="-83"/>
			<point x="120" y="-92"/>
			<point x="150" y="-97"/>
			<point x="163" y="-97" type="qcurve"/>
			<point x="215" y="-97"/>
			<point x="271" y="-51"/>
			<point x="285" y="8" type="qcurve"/>
			<point x="379" y="395" type="line"/>
		</contour>
	</outline>
</glyph>
<glyph name="uni024D" format="2">
	<unicode hex="024D"/>
	<advance width="500"/>
	<outline>
		<contour>
			<point x="72" y="246" type="line"/>
			<point x="148" y="246" type="line"/>
			<point x="195" y="440" type="line"/>
			<point x="301" y="474"/>
			<point x="408" y="474" type="qcurve"/>
			<point x="439" y="474"/>
			<point x="487" y="469"/>
			<point x="522" y="462" type="qcurve"/>
			<point x="491" y="389" type="line"/>
			<point x="476" y="393"/>
			<point x="451" y="398"/>
			<point x="429" y="401"/>
			<point x="406" y="402"/>
			<point x="391" y="402" type="qcurve"/>
			<point x="360" y="402"/>
			<point x="295" y="394"/>
			<point x="263" y="386" type="qcurve"/>
			<point x="230" y="246" type="line"/>
			<point x="387" y="246" type="line"/>
			<point x="371" y="183" type="line"/>
			<point x="215" y="183" type="line"/>
			<point x="171" y="0" type="line"/>
			<point x="89" y="0" type="line"/>
			<point x="133" y="183" type="line"/>
			<point x="57" y="183" type="line"/>
		</contour>
	</outline>
</glyph>
<glyph name="apostrophe" format="2">
	<unicode hex="02BC"/>
	<advance width="500"/>
	<outline>
		<contour>
			<point x="338" y="693" type="line"/>
			<point x="330" y="636"/>
			<point x="305" y="581"/>
			<point x="269" y="525" type="curve"/>
			<point x="321" y="505" type="line"/>
			<point x="362" y="546"/>
			<point x="406" y="619"/>
			<point x="423" y="693" type="curve"/>
		</contour>
	</outline>
</glyph>
<glyph name="circumflex" format="2">
	<unicode hex="02C6"/>
	<advance width="500"/>
	<outline>
		<contour>
			<point x="443" y="518" type="line"/>
			<point x="482" y="555" type="line"/>
			<point x="388" y="687" type="line"/>
			<point x="243" y="563" type="line"/>
			<point x="272" y="522" type="line"/>
			<point x="372" y="596" type="line"/>
		</contour>
	</outline>
</glyph>
<glyph name="dotaccent" format="2">
	<unicode hex="02D9"/>
	<advance width="500"/>
	<outline>
		<contour>
			<point x="360" y="548" type="qcurve"/>
			<point x="339" y="548"/>
			<point x="312" y="573"/>
			<point x="312" y="596" type="qcurve"/>
			<point x="312" y="625"/>
			<point x="347" y="657"/>
			<point x="370" y="657" type="qcurve"/>
			<point x="390" y="657"/>
			<point x="419" y="631"/>
			<point x="419" y="608" type="qcurve"/>
			<point x="419" y="581"/>
			<point x="381" y="548"/>
		</contour>
	</outline>
</glyph>
<glyph name="ring" format="2">
	<unicode hex="02DA"/>
	<advance width="500"/>
	<outline>
		<contour>
			<point x="459" y="605" type="qcurve"/>
			<point x="459" y="562"/>
			<point x="404" y="513"/>
			<point x="367" y="513" type="qcurve"/>
			<point x="330" y="513"/>
			<point x="275" y="562"/>
			<point x="275" y="605" type="qcurve"/>
			<point x="275" y="647"/>
			<point x="330" y="696"/>
			<point x="367" y="696" type="qcurve"/>
			<point x="404" y="696"/>
			<point x="459" y="647"/>
		</contour>
		<contour>
			<point x="414" y="605" type="qcurve"/>
			<point x="414" y="628"/>
			<point x="387" y="654"/>
			<point x="367" y="654" type="qcurve"/>
			<point x="347" y="654"/>
			<point x="320" y="628"/>
			<point x="320" y="605" type="qcurve"/>
			<point x="320" y="581"/>
			<point x="347" y="555"/>
			<point x="367" y="555" type="qcurve"/>
			<point x="387" y="555"/>
			<point x="414" y="581"/>
		</contour>
	</outline>
</glyph>
<glyph name="ogonek" format="2">
	<unicode hex="02DB"/>
	<advance width="500"/>
	<outline>
		<contour>
			<point x="213" y="-167" type="curve" smooth="yes"/>
			<point x="233" y="-167"/>
			<point x="251" y="-163"/>
			<point x="264" y="-157" type="curve"/>
			<point x="271" y="-104" type="line"/>
			<point x="261" y="-107"/>
			<point x="247" y="-110"/>
			<point x="236" y="-110" type="curve" smooth="yes"/>
			<point x="212" y="-110"/>
			<point x="203" y="-102"/>
			<point x="203" y="-90" type="curve" smooth="yes"/>
			<point x="203" y="-66"/>
			<point x="230" y="-46"/>
			<point x="244" y="-35" type="curve" smooth="yes"/>
			<point x="266" y="-16"/>
			<point x="287" y="-3"/>
			<point x="302" y="7" type="curve"/>
			<point x="220" y="7" type="line"/>
			<point x="210" y="1"/>
			<point x="196" y="-9"/>
			<point x="178" y="-24" type="curve" smooth="yes"/>
			<point x="149" y="-48"/>
			<point x="124" y="-79"/>
			<point x="124" y="-111" type="curve" smooth="yes"/>
			<point x="124" y="-144"/>
			<point x="147" y="-167"/>
		</contour>
	</outline>
</glyph>
<glyph name="hungarumlaut" format="2">
	<unicode hex="02DD"/>
	<advance width="500"/>
	<outline>
		<contour>
			<point x="330" y="691" type="line"/>
			<point x="205" y="558" type="line"/>
			<point x="240" y="518" type="line"/>
			<point x="375" y="633" type="line"/>
		</contour>
		<contour>
			<point x="480" y="689" type="line"/>
			<point x="355" y="556" type="line"/>
			<point x="390" y="518" type="line"/>
			<point x="525" y="631" type="line"/>
		</contour>
	</outline>
</glyph>
<glyph name="dieresistonos" format="2">
	<unicode hex="0385"/>
	<advance width="500"/>
	<outline>
		<contour>
			<point x="233" y="555" type="qcurve"/>
			<point x="215" y="555"/>
			<point x="190" y="578"/>
			<point x="190" y="597" type="qcurve"/>
			<point x="190" y="623"/>
			<point x="223" y="653"/>
			<point x="243" y="653" type="qcurve"/>
			<point x="261" y="653"/>
			<point x="287" y="629"/>
			<point x="287" y="609" type="qcurve"/>
			<point x="287" y="585"/>
			<point x="252" y="555"/>
		</contour>
		<contour>
			<point x="491" y="555" type="qcurve"/>
			<point x="473" y="555"/>
			<point x="448" y="578"/>
			<point x="448" y="597" type="qcurve"/>
			<point x="448" y="623"/>
			<point x="481" y="653"/>
			<point x="501" y="653" type="qcurve"/>
			<point x="519" y="653"/>
			<point x="545" y="629"/>
			<point x="545" y="609" type="qcurve"/>
			<point x="545" y="585"/>
			<point x="510" y="555"/>
		</contour>
		<contour>
			<point x="441" y="655" type="line"/>
			<point x="336" y="516" type="line"/>
			<point x="289" y="543" type="line"/>
			<point x="387" y="697" type="line"/>
		</contour>
	</outline>
</glyph>
<glyph name="Xi" format="2">
	<unicode hex="039E"/>
	<advance width="500"/>
	<outline>
		<contour>
			<point x="576" y="619" type="line"/>
			<point x="182" y="619" type="line"/>
			<point x="165" y="547" type="line"/>
			<point x="559" y="547" type="line"/>
		</contour>
		<contour>
			<point x="26" y="0" type="line"/>
			<point x="437" y="0" type="line"/>
			<point x="454" y="71" type="line"/>
			<point x="43" y="71" type="line"/>
		</contour>
		<contour>
			<point x="139" y="288" type="line"/>
			<point x="460" y="288" type="line"/>
			<point x="478" y="361" type="line"/>
			<point x="157" y="361" type="line"/>
		</contour>
	</outline>
	<guideline y="70"/>
	<guideline y="289"/>
	<guideline y="359"/>
	<guideline y="549"/>
</glyph>
<glyph name="beta" format="2">
	<unicode hex="03B2"/>
	<advance width="500"/>
	<outline>
		<contour>
			<point x="176" y="487" type="line"/>
			<point x="189" y="541"/>
			<point x="232" y="619"/>
			<point x="287" y="669"/>
			<point x="350" y="692"/>
			<point x="383" y="692" type="qcurve"/>
			<point x="446" y="692"/>
			<point x="520" y="623"/>
			<point x="520" y="563" type="qcurve"/>
			<point x="520" y="536"/>
			<point x="506" y="481"/>
			<point x="475" y="432"/>
			<point x="424" y="392"/>
			<point x="388" y="380" type="qcurve"/>
			<point x="436" y="362"/>
			<point x="487" y="287"/>
			<point x="487" y="230" type="qcurve"/>
			<point x="487" y="180"/>
			<point x="453" y="93"/>
			<point x="391" y="30"/>
			<point x="307" y="-6"/>
			<point x="258" y="-6" type="qcurve"/>
			<point x="201" y="-6"/>
			<point x="146" y="20" type="qcurve"/>
			<point x="102" y="-165" type="line"/>
			<point x="20" y="-165" type="line"/>
		</contour>
		<contour>
			<point x="163" y="88" type="line"/>
			<point x="207" y="65"/>
			<point x="251" y="65" type="qcurve"/>
			<point x="282" y="65"/>
			<point x="338" y="88"/>
			<point x="380" y="131"/>
			<point x="405" y="192"/>
			<point x="405" y="230" type="qcurve"/>
			<point x="405" y="281"/>
			<point x="350" y="344"/>
			<point x="293" y="344" type="qcurve"/>
			<point x="281" y="344" type="line"/>
			<point x="297" y="412" type="line"/>
			<point x="303" y="412" type="line"/>
			<point x="337" y="412"/>
			<point x="389" y="437"/>
			<point x="423" y="477"/>
			<point x="440" y="524"/>
			<point x="440" y="547" type="qcurve"/>
			<point x="440" y="622"/>
			<point x="379" y="622" type="qcurve"/>
			<point x="339" y="622"/>
			<point x="275" y="556"/>
			<point x="258" y="485" type="qcurve"/>
		</contour>
	</outline>
</glyph>
<glyph name="lambda" format="2">
	<unicode hex="03BB"/>
	<advance width="500"/>
	<outline>
		<contour>
			<point x="32" y="0" type="line"/>
			<point x="80" y="122"/>
			<point x="234" y="362"/>
			<point x="324" y="472" type="qcurve"/>
			<point x="317" y="514"/>
			<point x="304" y="573"/>
			<point x="285" y="610"/>
			<point x="255" y="626"/>
			<point x="231" y="626" type="qcurve"/>
			<point x="218" y="626"/>
			<point x="193" y="623"/>
			<point x="182" y="618" type="qcurve"/>
			<point x="186" y="685" type="line"/>
			<point x="199" y="690"/>
			<point x="230" y="693"/>
			<point x="247" y="693" type="qcurve"/>
			<point x="311" y="693"/>
			<point x="370" y="630"/>
			<point x="381" y="573" type="qcurve"/>
			<point x="415" y="408"/>
			<point x="444" y="121"/>
			<point x="449" y="0" type="qcurve"/>
			<point x="368" y="0" type="line"/>
			<point x="367" y="38"/>
			<point x="364" y="119"/>
			<point x="358" y="211"/>
			<point x="348" y="317"/>
			<point x="339" y="380" type="qcurve"/>
			<point x="304" y="335"/>
			<point x="239" y="239"/>
			<point x="182" y="142"/>
			<point x="134" y="45"/>
			<point x="116" y="0" type="qcurve"/>
		</contour>
	</outline>
</glyph>
<glyph name="xi" format="2">
	<unicode hex="03BE"/>
	<advance width="500"/>
	<outline>
		<contour>
			<point x="402" y="335" type="line"/>
			<point x="363" y="335"/>
			<point x="284" y="315"/>
			<point x="220" y="276"/>
			<point x="179" y="215"/>
			<point x="179" y="175" type="qcurve"/>
			<point x="179" y="151"/>
			<point x="191" y="120"/>
			<point x="219" y="98"/>
			<point x="266" y="82"/>
			<point x="301" y="74" type="qcurve"/>
			<point x="364" y="59"/>
			<point x="421" y="13"/>
			<point x="421" y="-33" type="qcurve"/>
			<point x="421" y="-63"/>
			<point x="382" y="-139"/>
			<point x="344" y="-170" type="qcurve"/>
			<point x="284" y="-137" type="line"/>
			<point x="292" y="-130"/>
			<point x="311" y="-110"/>
			<point x="328" y="-85"/>
			<point x="339" y="-55"/>
			<point x="339" y="-38" type="qcurve"/>
			<point x="339" y="-17"/>
			<point x="292" y="3"/>
			<point x="245" y="13" type="qcurve"/>
			<point x="200" y="23"/>
			<point x="142" y="51"/>
			<point x="109" y="88"/>
			<point x="96" y="136"/>
			<point x="96" y="165" type="qcurve"/>
			<point x="96" y="205"/>
			<point x="123" y="272"/>
			<point x="170" y="325"/>
			<point x="234" y="362"/>
			<point x="272" y="374" type="qcurve"/>
			<point x="242" y="388"/>
			<point x="201" y="441"/>
			<point x="201" y="481" type="qcurve"/>
			<point x="201" y="534"/>
			<point x="242" y="613"/>
			<point x="310" y="666"/>
			<point x="396" y="693"/>
			<point x="441" y="693" type="qcurve"/>
			<point x="495" y="693"/>
			<point x="551" y="678"/>
			<point x="565" y="672" type="qcurve"/>
			<point x="536" y="604" type="line"/>
			<point x="522" y="609"/>
			<point x="474" y="623"/>
			<point x="438" y="623" type="qcurve"/>
			<point x="409" y="623"/>
			<point x="353" y="606"/>
			<point x="309" y="573"/>
			<point x="283" y="522"/>
			<point x="283" y="488" type="qcurve"/>
			<point x="283" y="445"/>
			<point x="348" y="405"/>
			<point x="404" y="405" type="qcurve"/>
			<point x="472" y="405" type="line"/>
			<point x="455" y="335" type="line"/>
		</contour>
	</outline>
</glyph>
<glyph name="tau" format="2">
	<unicode hex="03C4"/>
	<advance width="500"/>
	<outline>
		<contour>
			<point x="445" y="13" type="line"/>
			<point x="416" y="3"/>
			<point x="343" y="-11"/>
			<point x="308" y="-11" type="qcurve"/>
			<point x="279" y="-11"/>
			<point x="227" y="1"/>
			<point x="187" y="28"/>
			<point x="163" y="74"/>
			<point x="163" y="109" type="qcurve"/>
			<point x="163" y="131"/>
			<point x="171" y="179"/>
			<point x="177" y="204" type="qcurve"/>
			<point x="223" y="395" type="line"/>
			<point x="107" y="395" type="line"/>
			<point x="124" y="464" type="line"/>
			<point x="528" y="464" type="line"/>
			<point x="511" y="395" type="line"/>
			<point x="305" y="395" type="line"/>
			<point x="258" y="196" type="line"/>
			<point x="253" y="177"/>
			<point x="246" y="141"/>
			<point x="246" y="124" type="qcurve"/>
			<point x="246" y="105"/>
			<point x="258" y="81"/>
			<point x="278" y="67"/>
			<point x="305" y="61"/>
			<point x="321" y="61" type="qcurve"/>
			<point x="353" y="61"/>
			<point x="421" y="74"/>
			<point x="447" y="84" type="qcurve"/>
		</contour>
	</outline>
</glyph>
<glyph name="omega" format="2">
	<unicode hex="03C9"/>
	<advance width="500"/>
	<outline>
		<contour>
			<point x="337" y="-9" type="qcurve"/>
			<point x="303" y="-9"/>
			<point x="261" y="35"/>
			<point x="253" y="67" type="qcurve"/>
			<point x="229" y="22"/>
			<point x="176" y="-9"/>
			<point x="148" y="-9" type="qcurve"/>
			<point x="96" y="-9"/>
			<point x="46" y="72"/>
			<point x="46" y="134" type="qcurve"/>
			<point x="46" y="177"/>
			<point x="67" y="270"/>
			<point x="107" y="359"/>
			<point x="165" y="441"/>
			<point x="203" y="474" type="qcurve"/>
			<point x="263" y="444" type="line"/>
			<point x="183" y="364"/>
			<point x="122" y="212"/>
			<point x="122" y="151" type="qcurve"/>
			<point x="122" y="110"/>
			<point x="142" y="63"/>
			<point x="161" y="63" type="qcurve"/>
			<point x="182" y="63"/>
			<point x="211" y="101"/>
			<point x="230" y="155"/>
			<point x="242" y="213"/>
			<point x="246" y="233" type="qcurve"/>
			<point x="255" y="278" type="line"/>
			<point x="329" y="278" type="line"/>
			<point x="318" y="233" type="line"/>
			<point x="313" y="213"/>
			<point x="305" y="166"/>
			<point x="306" y="149" type="qcurve"/>
			<point x="306" y="114"/>
			<point x="323" y="63"/>
			<point x="346" y="63" type="qcurve"/>
			<point x="364" y="63"/>
			<point x="391" y="97"/>
			<point x="408" y="152"/>
			<point x="417" y="223"/>
			<point x="417" y="260" type="qcurve"/>
			<point x="417" y="316"/>
			<point x="398" y="417"/>
			<point x="382" y="447" type="qcurve"/>
			<point x="457" y="472" type="line"/>
			<point x="475" y="437"/>
			<point x="496" y="326"/>
			<point x="496" y="266" type="qcurve"/>
			<point x="496" y="215"/>
			<point x="479" y="116"/>
			<point x="442" y="39"/>
			<point x="381" y="-9"/>
		</contour>
	</outline>
</glyph>
<glyph name="afii10018" format="2">
	<unicode hex="0411"/>
	<advance width="500"/>
	<outline>
		<contour>
			<point x="255" y="549" type="line"/>
			<point x="217" y="388" type="line"/>
			<point x="276" y="388" type="line"/>
			<point x="323" y="388"/>
			<point x="402" y="371"/>
			<point x="460" y="335"/>
			<point x="492" y="278"/>
			<point x="492" y="238" type="qcurve"/>
			<point x="492" y="171"/>
			<point x="446" y="79"/>
			<point x="365" y="21"/>
			<point x="255" y="-5"/>
			<point x="192" y="-5" type="qcurve"/>
			<point x="157" y="-5"/>
			<point x="76" y="1"/>
			<point x="45" y="10" type="qcurve"/>
			<point x="189" y="619" type="line"/>
			<point x="531" y="619" type="line"/>
			<point x="515" y="549" type="line"/>
		</contour>
		<contour>
			<point x="212" y="64" type="qcurve"/>
			<point x="248" y="64"/>
			<point x="317" y="79"/>
			<point x="373" y="117"/>
			<point x="407" y="178"/>
			<point x="407" y="225" type="qcurve"/>
			<point x="407" y="276"/>
			<point x="338" y="318"/>
			<point x="263" y="318" type="qcurve"/>
			<point x="200" y="318" type="line"/>
			<point x="139" y="68" type="line"/>
			<point x="164" y="65"/>
			<point x="194" y="64"/>
		</contour>
	</outline>
</glyph>
<glyph name="afii10029" format="2">
	<unicode hex="041B"/>
	<advance width="500"/>
	<outline>
		<contour>
			<point x="478" y="549" type="line"/>
			<point x="346" y="0" type="line"/>
			<point x="429" y="0" type="line"/>
			<point x="577" y="619" type="line"/>
			<point x="280" y="619" type="line"/>
			<point x="246" y="446"/>
			<point x="205" y="294"/>
			<point x="155" y="198" type="curve" smooth="yes"/>
			<point x="110" y="110"/>
			<point x="70" y="71"/>
			<point x="12" y="61" type="curve"/>
			<point x="20" y="-8" type="line"/>
			<point x="118" y="-1"/>
			<point x="177" y="76"/>
			<point x="228" y="177" type="curve" smooth="yes"/>
			<point x="283" y="285"/>
			<point x="313" y="404"/>
			<point x="346" y="549" type="curve"/>
		</contour>
	</outline>
</glyph>
<glyph name="afii10049" format="2">
	<unicode hex="042F"/>
	<advance width="500"/>
	<outline>
		<contour>
			<point x="29" y="0" type="line"/>
			<point x="52" y="36"/>
			<point x="104" y="111"/>
			<point x="157" y="181"/>
			<point x="206" y="243"/>
			<point x="226" y="266" type="qcurve"/>
			<point x="189" y="284"/>
			<point x="152" y="346"/>
			<point x="152" y="397" type="qcurve"/>
			<point x="152" y="452"/>
			<point x="198" y="538"/>
			<point x="274" y="595"/>
			<point x="375" y="625"/>
			<point x="430" y="625" type="qcurve"/>
			<point x="446" y="625"/>
			<point x="485" y="623"/>
			<point x="525" y="620"/>
			<point x="562" y="614"/>
			<point x="577" y="610" type="qcurve"/>
			<point x="430" y="0" type="line"/>
			<point x="348" y="0" type="line"/>
			<point x="407" y="243" type="line"/>
			<point x="337" y="243" type="line"/>
			<point x="326" y="243"/>
			<point x="305" y="245"/>
			<point x="300" y="246" type="qcurve"/>
			<point x="281" y="224"/>
			<point x="237" y="168"/>
			<point x="189" y="104"/>
			<point x="141" y="34"/>
			<point x="118" y="0" type="qcurve"/>
		</contour>
		<contour>
			<point x="481" y="553" type="line"/>
			<point x="454" y="556"/>
			<point x="428" y="556" type="qcurve"/>
			<point x="389" y="556"/>
			<point x="319" y="541"/>
			<point x="266" y="505"/>
			<point x="234" y="445"/>
			<point x="234" y="401" type="qcurve"/>
			<point x="234" y="353"/>
			<point x="294" y="311"/>
			<point x="354" y="311" type="qcurve"/>
			<point x="423" y="311" type="line"/>
		</contour>
	</outline>
</glyph>
<glyph name="afii10067" format="2">
	<unicode hex="0432"/>
	<advance width="500"/>
	<outline>
		<contour>
			<point x="480" y="363" type="qcurve"/>
			<point x="480" y="312"/>
			<point x="433" y="258"/>
			<point x="395" y="243" type="qcurve"/>
			<point x="425" y="233"/>
			<point x="462" y="186"/>
			<point x="462" y="154" type="qcurve"/>
			<point x="462" y="104"/>
			<point x="422" y="41"/>
			<point x="356" y="4"/>
			<point x="272" y="-10"/>
			<point x="228" y="-10" type="qcurve"/>
			<point x="181" y="-10"/>
			<point x="86" y="0"/>
			<point x="54" y="13" type="qcurve"/>
			<point x="121" y="301" type="line"/>
			<point x="133" y="353"/>
			<point x="177" y="420"/>
			<point x="234" y="460"/>
			<point x="304" y="476"/>
			<point x="343" y="476" type="qcurve"/>
			<point x="378" y="476"/>
			<point x="429" y="458"/>
			<point x="463" y="427"/>
			<point x="480" y="386"/>
		</contour>
		<contour>
			<point x="182" y="213" type="line"/>
			<point x="147" y="62" type="line"/>
			<point x="160" y="60"/>
			<point x="203" y="56"/>
			<point x="235" y="56" type="qcurve"/>
			<point x="263" y="56"/>
			<point x="316" y="65"/>
			<point x="356" y="86"/>
			<point x="380" y="121"/>
			<point x="380" y="148" type="qcurve"/>
			<point x="380" y="183"/>
			<point x="334" y="213"/>
			<point x="285" y="213" type="qcurve"/>
		</contour>
		<contour>
			<point x="197" y="273" type="line"/>
			<point x="266" y="273" type="line"/>
			<point x="294" y="273"/>
			<point x="343" y="281"/>
			<point x="379" y="300"/>
			<point x="400" y="332"/>
			<point x="400" y="357" type="qcurve"/>
			<point x="400" y="380"/>
			<point x="367" y="410"/>
			<point x="332" y="410" type="qcurve"/>
			<point x="311" y="410"/>
			<point x="270" y="400"/>
			<point x="234" y="372"/>
			<point x="206" y="322"/>
			<point x="199" y="282" type="qcurve"/>
		</contour>
	</outline>
</glyph>
<glyph name="afii10073" format="2">
	<unicode hex="0437"/>
	<advance width="500"/>
	<outline>
		<contour>
			<point x="180" y="452" type="line"/>
			<point x="218" y="463"/>
			<point x="299" y="476"/>
			<point x="338" y="476" type="qcurve"/>
			<point x="383" y="476"/>
			<point x="444" y="458"/>
			<point x="481" y="427"/>
			<point x="497" y="388"/>
			<point x="497" y="367" type="qcurve"/>
			<point x="497" y="350"/>
			<point x="487" y="312"/>
			<point x="465" y="277"/>
			<point x="429" y="248"/>
			<point x="404" y="239" type="qcurve"/>
			<point x="436" y="222"/>
			<point x="464" y="181"/>
			<point x="464" y="146" type="qcurve"/>
			<point x="464" y="120"/>
			<point x="441" y="64"/>
			<point x="384" y="18"/>
			<point x="289" y="-11"/>
			<point x="218" y="-11" type="qcurve"/>
			<point x="176" y="-11"/>
			<point x="98" y="1"/>
			<point x="63" y="15" type="qcurve"/>
			<point x="96" y="85" type="line"/>
			<point x="110" y="80"/>
			<point x="188" y="61"/>
			<point x="242" y="61" type="qcurve"/>
			<point x="313" y="61"/>
			<point x="382" y="110"/>
			<point x="382" y="146" type="qcurve"/>
			<point x="382" y="174"/>
			<point x="330" y="209"/>
			<point x="279" y="209" type="qcurve"/>
			<point x="191" y="209" type="line"/>
			<point x="207" y="275" type="line"/>
			<point x="299" y="275" type="line"/>
			<point x="354" y="275"/>
			<point x="417" y="319"/>
			<point x="417" y="349" type="qcurve"/>
			<point x="417" y="374"/>
			<point x="369" y="405"/>
			<point x="315" y="405" type="qcurve"/>
			<point x="301" y="405"/>
			<point x="267" y="401"/>
			<point x="231" y="395"/>
			<point x="196" y="385"/>
			<point x="181" y="379" type="qcurve"/>
		</contour>
	</outline>
	<guideline x="464"/>
	<guideline x="497"/>
</glyph>
<glyph name="afii10090" format="2">
	<unicode hex="0448"/>
	<advance width="500"/>
	<outline>
		<contour>
			<point x="131" y="179" type="line"/>
			<point x="116" y="115"/>
			<point x="127" y="58"/>
			<point x="159" y="58" type="qcurve"/>
			<point x="173" y="58"/>
			<point x="200" y="73"/>
			<point x="212" y="85" type="qcurve"/>
			<point x="210" y="125"/>
			<point x="222" y="175" type="qcurve"/>
			<point x="264" y="357" type="line"/>
			<point x="339" y="357" type="line"/>
			<point x="297" y="179" type="line"/>
			<point x="282" y="115"/>
			<point x="291" y="58"/>
			<point x="325" y="58" type="qcurve"/>
			<point x="342" y="58"/>
			<point x="368" y="89"/>
			<point x="377" y="112" type="qcurve"/>
			<point x="378" y="129"/>
			<point x="383" y="161"/>
			<point x="388" y="178" type="qcurve"/>
			<point x="456" y="464" type="line"/>
			<point x="530" y="464" type="line"/>
			<point x="460" y="170" type="line"/>
			<point x="450" y="130"/>
			<point x="448" y="55"/>
			<point x="465" y="5" type="qcurve"/>
			<point x="400" y="-4" type="line"/>
			<point x="396" y="2"/>
			<point x="390" y="22"/>
			<point x="388" y="30" type="qcurve"/>
			<point x="375" y="16"/>
			<point x="335" y="-12"/>
			<point x="309" y="-12" type="qcurve"/>
			<point x="253" y="-12"/>
			<point x="229" y="23" type="qcurve"/>
			<point x="214" y="9"/>
			<point x="169" y="-12"/>
			<point x="143" y="-12" type="qcurve"/>
			<point x="75" y="-12"/>
			<point x="35" y="85"/>
			<point x="56" y="175" type="qcurve"/>
			<point x="125" y="464" type="line"/>
			<point x="200" y="464" type="line"/>
		</contour>
	</outline>
</glyph>
<glyph name="afii10091" format="2">
	<unicode hex="0449"/>
	<advance width="500"/>
	<outline>
		<contour>
			<point x="131" y="179" type="line"/>
			<point x="116" y="115"/>
			<point x="124" y="58"/>
			<point x="159" y="58" type="qcurve"/>
			<point x="173" y="58"/>
			<point x="200" y="73"/>
			<point x="212" y="85" type="qcurve"/>
			<point x="210" y="125"/>
			<point x="222" y="175" type="qcurve"/>
			<point x="264" y="357" type="line"/>
			<point x="339" y="357" type="line"/>
			<point x="297" y="179" type="line"/>
			<point x="282" y="115"/>
			<point x="290" y="58"/>
			<point x="325" y="58" type="qcurve"/>
			<point x="342" y="58"/>
			<point x="368" y="89"/>
			<point x="377" y="112" type="qcurve"/>
			<point x="378" y="129"/>
			<point x="383" y="161"/>
			<point x="388" y="178" type="qcurve"/>
			<point x="456" y="464" type="line"/>
			<point x="530" y="464" type="line"/>
			<point x="463" y="182" type="line"/>
			<point x="458" y="162"/>
			<point x="452" y="125"/>
			<point x="458" y="94"/>
			<point x="483" y="73"/>
			<point x="510" y="70" type="qcurve"/>
			<point x="463" y="-129" type="line"/>
			<point x="384" y="-129" type="line"/>
			<point x="418" y="16" type="line"/>
			<point x="405" y="24"/>
			<point x="396" y="46" type="qcurve"/>
			<point x="391" y="38"/>
			<point x="376" y="18"/>
			<point x="354" y="0"/>
			<point x="326" y="-12"/>
			<point x="309" y="-12" type="qcurve"/>
			<point x="253" y="-12"/>
			<point x="229" y="23" type="qcurve"/>
			<point x="214" y="9"/>
			<point x="169" y="-12"/>
			<point x="143" y="-12" type="qcurve"/>
			<point x="75" y="-12"/>
			<point x="35" y="85"/>
			<point x="56" y="175" type="qcurve"/>
			<point x="125" y="464" type="line"/>
			<point x="200" y="464" type="line"/>
		</contour>
	</outline>
</glyph>
<glyph name="afii10092" format="2">
	<unicode hex="044A"/>
	<advance width="500"/>
	<outline>
		<contour>
			<point x="255" y="288" type="line"/>
			<point x="270" y="291"/>
			<point x="317" y="297"/>
			<point x="337" y="297" type="qcurve"/>
			<point x="410" y="297"/>
			<point x="489" y="237"/>
			<point x="489" y="171" type="qcurve"/>
			<point x="489" y="121"/>
			<point x="453" y="53"/>
			<point x="392" y="9"/>
			<point x="311" y="-10"/>
			<point x="266" y="-10" type="qcurve"/>
			<point x="221" y="-10"/>
			<point x="136" y="0"/>
			<point x="104" y="13" type="qcurve"/>
			<point x="199" y="395" type="line"/>
			<point x="108" y="395" type="line"/>
			<point x="125" y="464" type="line"/>
			<point x="298" y="464" type="line"/>
		</contour>
		<contour>
			<point x="313" y="231" type="qcurve"/>
			<point x="293" y="231"/>
			<point x="252" y="227"/>
			<point x="238" y="223" type="qcurve"/>
			<point x="198" y="62" type="line"/>
			<point x="210" y="60"/>
			<point x="244" y="56"/>
			<point x="273" y="56" type="qcurve"/>
			<point x="335" y="56"/>
			<point x="409" y="109"/>
			<point x="409" y="163" type="qcurve"/>
			<point x="409" y="197"/>
			<point x="364" y="231"/>
		</contour>
	</outline>
</glyph>
<glyph name="afii10106" format="2">
	<unicode hex="0459"/>
	<advance width="500"/>
	<outline>
		<contour>
			<point x="13" y="-7" type="line"/>
			<point x="99" y="6"/>
			<point x="138" y="54"/>
			<point x="174" y="138" type="curve" smooth="yes"/>
			<point x="207" y="214"/>
			<point x="232" y="315"/>
			<point x="252" y="395" type="curve"/>
			<point x="319" y="395" type="line"/>
			<point x="227" y="13" type="line"/>
			<point x="261" y="-4"/>
			<point x="296" y="-10"/>
			<point x="330" y="-10" type="curve" smooth="yes"/>
			<point x="448" y="-10"/>
			<point x="500" y="92"/>
			<point x="500" y="184" type="curve" smooth="yes"/>
			<point x="500" y="245"/>
			<point x="479" y="296"/>
			<point x="413" y="296" type="curve" smooth="yes"/>
			<point x="400" y="296"/>
			<point x="384" y="292"/>
			<point x="367" y="287" type="curve"/>
			<point x="410" y="464" type="line"/>
			<point x="195" y="464" type="line"/>
			<point x="173" y="359"/>
			<point x="150" y="235"/>
			<point x="99" y="138" type="curve" smooth="yes"/>
			<point x="82" y="107"/>
			<point x="53" y="71"/>
			<point x="5" y="61" type="curve"/>
		</contour>
		<contour>
			<point x="348" y="56" type="curve" smooth="yes"/>
			<point x="330" y="56"/>
			<point x="321" y="59"/>
			<point x="313" y="62" type="curve"/>
			<point x="351" y="223" type="line"/>
			<point x="363" y="228"/>
			<point x="375" y="230"/>
			<point x="384" y="230" type="curve" smooth="yes"/>
			<point x="421" y="230"/>
			<point x="427" y="211"/>
			<point x="427" y="174" type="curve" smooth="yes"/>
			<point x="427" y="112"/>
			<point x="396" y="56"/>
		</contour>
	</outline>
	<guideline y="-8"/>
</glyph>
<glyph name="afii10108" format="2">
	<unicode hex="045B"/>
	<advance width="500"/>
	<outline>
		<contour>
			<point x="80" y="0" type="line"/>
			<point x="212" y="548" type="line"/>
			<point x="146" y="548" type="line"/>
			<point x="160" y="611" type="line"/>
			<point x="226" y="611" type="line"/>
			<point x="243" y="679" type="line"/>
			<point x="329" y="693" type="line"/>
			<point x="308" y="611" type="line"/>
			<point x="453" y="611" type="line"/>
			<point x="438" y="548" type="line"/>
			<point x="293" y="548" type="line"/>
			<point x="271" y="457" type="line"/>
			<point x="291" y="465"/>
			<point x="332" y="474"/>
			<point x="354" y="474" type="qcurve"/>
			<point x="429" y="474"/>
			<point x="494" y="392"/>
			<point x="494" y="327" type="qcurve"/>
			<point x="494" y="306"/>
			<point x="486" y="260"/>
			<point x="480" y="236" type="qcurve"/>
			<point x="423" y="0" type="line"/>
			<point x="341" y="0" type="line"/>
			<point x="393" y="218" type="line"/>
			<point x="399" y="243"/>
			<point x="412" y="296"/>
			<point x="412" y="320" type="qcurve"/>
			<point x="412" y="355"/>
			<point x="377" y="402"/>
			<point x="330" y="402" type="qcurve"/>
			<point x="290" y="402"/>
			<point x="256" y="388" type="qcurve"/>
			<point x="162" y="0" type="line"/>
		</contour>
	</outline>
</glyph>
<glyph name="uni048B" format="2">
	<unicode hex="048B"/>
	<advance width="500"/>
	<outline>
		<contour>
			<point x="214" y="-10" type="qcurve"/>
			<point x="178" y="-10"/>
			<point x="128" y="13"/>
			<point x="97" y="52"/>
			<point x="84" y="105"/>
			<point x="84" y="135" type="qcurve"/>
			<point x="84" y="158"/>
			<point x="91" y="204"/>
			<point x="97" y="227" type="qcurve"/>
			<point x="154" y="464" type="line"/>
			<point x="237" y="464" type="line"/>
			<point x="184" y="245" type="line"/>
			<point x="179" y="224"/>
			<point x="166" y="169"/>
			<point x="166" y="141" type="qcurve"/>
			<point x="166" y="125"/>
			<point x="172" y="96"/>
			<point x="186" y="73"/>
			<point x="211" y="60"/>
			<point x="230" y="60" type="qcurve"/>
			<point x="265" y="60"/>
			<point x="319" y="93"/>
			<point x="338" y="115" type="qcurve"/>
			<point x="338" y="129"/>
			<point x="341" y="160"/>
			<point x="346" y="178" type="qcurve"/>
			<point x="415" y="464" type="line"/>
			<point x="497" y="464" type="line"/>
			<point x="427" y="171" type="line"/>
			<point x="422" y="152"/>
			<point x="415" y="121"/>
			<point x="415" y="107" type="qcurve"/>
			<point x="415" y="89"/>
			<point x="438" y="63"/>
			<point x="470" y="58" type="qcurve"/>
			<point x="459" y="-7"/>
			<point x="385" y="-120"/>
			<point x="331" y="-150" type="qcurve"/>
			<point x="283" y="-110" type="line"/>
			<point x="304" y="-95"/>
			<point x="360" y="-38"/>
			<point x="380" y="11" type="qcurve"/>
			<point x="355" y="21"/>
			<point x="343" y="44" type="qcurve"/>
			<point x="325" y="26"/>
			<point x="262" y="-10"/>
		</contour>
		<contour>
			<point x="346" y="539" type="qcurve"/>
			<point x="292" y="539"/>
			<point x="231" y="593"/>
			<point x="228" y="647" type="qcurve"/>
			<point x="292" y="663" type="line"/>
			<point x="293" y="648"/>
			<point x="299" y="625"/>
			<point x="313" y="608"/>
			<point x="336" y="599"/>
			<point x="355" y="599" type="qcurve"/>
			<point x="384" y="599"/>
			<point x="427" y="635"/>
			<point x="440" y="664" type="qcurve"/>
			<point x="500" y="644" type="line"/>
			<point x="479" y="593"/>
			<point x="402" y="539"/>
		</contour>
	</outline>
</glyph>
<glyph name="uni0493" format="2">
	<unicode hex="0493"/>
	<advance width="500"/>
	<outline>
		<contour>
			<point x="305" y="202" type="line"/>
			<point x="295" y="199" type="line"/>
			<point x="274" y="193"/>
			<point x="229" y="179"/>
			<point x="193" y="159"/>
			<point x="170" y="130"/>
			<point x="170" y="110" type="qcurve"/>
			<point x="170" y="81"/>
			<point x="225" y="57"/>
			<point x="278" y="57" type="qcurve"/>
			<point x="305" y="57"/>
			<point x="351" y="64"/>
			<point x="389" y="74"/>
			<point x="415" y="83"/>
			<point x="421" y="86" type="qcurve"/>
			<point x="426" y="16" type="line"/>
			<point x="419" y="13"/>
			<point x="389" y="3"/>
			<point x="348" y="-6"/>
			<point x="298" y="-12"/>
			<point x="271" y="-12" type="qcurve"/>
			<point x="182" y="-12"/>
			<point x="88" y="44"/>
			<point x="88" y="101" type="qcurve"/>
			<point x="88" y="130"/>
			<point x="108" y="176"/>
			<point x="141" y="210"/>
			<point x="186" y="236"/>
			<point x="212" y="246" type="qcurve"/>
			<point x="134" y="283" type="line"/>
			<point x="163" y="329" type="line"/>
			<point x="287" y="270" type="line"/>
			<point x="314" y="277"/>
			<point x="359" y="292"/>
			<point x="392" y="312"/>
			<point x="410" y="338"/>
			<point x="410" y="356" type="qcurve"/>
			<point x="410" y="371"/>
			<point x="395" y="391"/>
			<point x="369" y="402"/>
			<point x="337" y="407"/>
			<point x="320" y="407" type="qcurve"/>
			<point x="271" y="407"/>
			<point x="196" y="385"/>
			<point x="180" y="379" type="qcurve"/>
			<point x="176" y="448" type="line"/>
			<point x="195" y="457"/>
			<point x="281" y="476"/>
			<point x="331" y="476" type="qcurve"/>
			<point x="403" y="476"/>
			<point x="490" y="419"/>
			<point x="490" y="365" type="qcurve"/>
			<point x="490" y="336"/>
			<point x="472" y="294"/>
			<point x="441" y="261"/>
			<point x="400" y="237"/>
			<point x="377" y="227" type="qcurve"/>
			<point x="457" y="189" type="line"/>
			<point x="429" y="144" type="line"/>
		</contour>
	</outline>
</glyph>
<glyph name="uni049A" format="2">
	<unicode hex="049A"/>
	<advance width="500"/>
	<outline>
		<contour>
			<point x="360" y="0" type="line"/>
			<point x="326" y="106"/>
			<point x="245" y="251"/>
			<point x="198" y="298" type="qcurve"/>
			<point x="127" y="0" type="line"/>
			<point x="45" y="0" type="line"/>
			<point x="193" y="619" type="line"/>
			<point x="275" y="619" type="line"/>
			<point x="210" y="348" type="line"/>
			<point x="294" y="423"/>
			<point x="429" y="556"/>
			<point x="486" y="619" type="qcurve"/>
			<point x="588" y="619" type="line"/>
			<point x="552" y="581"/>
			<point x="481" y="509"/>
			<point x="407" y="437"/>
			<point x="329" y="362"/>
			<point x="284" y="322" type="qcurve"/>
			<point x="316" y="282"/>
			<point x="391" y="152"/>
			<point x="424" y="70" type="qcurve"/>
			<point x="471" y="70" type="line"/>
			<point x="414" y="-165" type="line"/>
			<point x="336" y="-165" type="line"/>
			<point x="375" y="0" type="line"/>
		</contour>
	</outline>
</glyph>
<glyph name="uni049B" format="2">
	<unicode hex="049B"/>
	<advance width="500"/>
	<outline>
		<contour>
			<point x="463" y="70" type="line"/>
			<point x="415" y="-129" type="line"/>
			<point x="337" y="-129" type="line"/>
			<point x="367" y="0" type="line"/>
			<point x="346" y="0" type="line"/>
			<point x="321" y="72"/>
			<point x="244" y="194"/>
			<point x="201" y="232" type="qcurve"/>
			<point x="145" y="0" type="line"/>
			<point x="63" y="0" type="line"/>
			<point x="174" y="464" type="line"/>
			<point x="257" y="464" type="line"/>
			<point x="211" y="275" type="line"/>
			<point x="239" y="297"/>
			<point x="299" y="346"/>
			<point x="357" y="395"/>
			<point x="409" y="443"/>
			<point x="429" y="464" type="qcurve"/>
			<point x="527" y="464" type="line"/>
			<point x="504" y="438"/>
			<point x="436" y="378"/>
			<point x="364" y="319"/>
			<point x="298" y="268"/>
			<point x="277" y="252" type="qcurve"/>
			<point x="319" y="211"/>
			<point x="379" y="121"/>
			<point x="403" y="70" type="qcurve"/>
		</contour>
	</outline>
</glyph>
<glyph name="uni04B3" format="2">
	<unicode hex="04B3"/>
	<advance width="500"/>
	<outline>
		<contour>
			<point x="346" y="0" type="line"/>
			<point x="328" y="49"/>
			<point x="294" y="131"/>
			<point x="272" y="176" type="qcurve"/>
			<point x="114" y="0" type="line"/>
			<point x="18" y="0" type="line"/>
			<point x="236" y="239" type="line"/>
			<point x="136" y="464" type="line"/>
			<point x="228" y="464" type="line"/>
			<point x="293" y="298" type="line"/>
			<point x="305" y="311"/>
			<point x="345" y="356"/>
			<point x="388" y="406"/>
			<point x="426" y="451"/>
			<point x="435" y="464" type="qcurve"/>
			<point x="524" y="464" type="line"/>
			<point x="515" y="451"/>
			<point x="465" y="391"/>
			<point x="405" y="322"/>
			<point x="347" y="256"/>
			<point x="329" y="237" type="qcurve"/>
			<point x="349" y="195"/>
			<point x="388" y="114"/>
			<point x="405" y="70" type="qcurve"/>
			<point x="463" y="70" type="line"/>
			<point x="415" y="-129" type="line"/>
			<point x="337" y="-129" type="line"/>
			<point x="367" y="0" type="line"/>
		</contour>
	</outline>
</glyph>
<glyph name="uni04B7" format="2">
	<unicode hex="04B7"/>
	<advance width="500"/>
	<outline>
		<contour>
			<point x="463" y="70" type="line"/>
			<point x="415" y="-129" type="line"/>
			<point x="337" y="-129" type="line"/>
			<point x="367" y="0" type="line"/>
			<point x="325" y="0" type="line"/>
			<point x="368" y="179" type="line"/>
			<point x="361" y="177"/>
			<point x="333" y="172"/>
			<point x="299" y="168"/>
			<point x="263" y="164"/>
			<point x="249" y="164" type="qcurve"/>
			<point x="214" y="164"/>
			<point x="154" y="180"/>
			<point x="115" y="218"/>
			<point x="102" y="281"/>
			<point x="113" y="327" type="qcurve"/>
			<point x="146" y="464" type="line"/>
			<point x="228" y="464" type="line"/>
			<point x="195" y="328" type="line"/>
			<point x="182" y="275"/>
			<point x="223" y="231"/>
			<point x="264" y="231" type="qcurve"/>
			<point x="280" y="231"/>
			<point x="315" y="233"/>
			<point x="348" y="236"/>
			<point x="375" y="241"/>
			<point x="384" y="243" type="qcurve"/>
			<point x="437" y="464" type="line"/>
			<point x="519" y="464" type="line"/>
			<point x="423" y="70" type="line"/>
		</contour>
	</outline>
</glyph>
<glyph name="uni04BD" format="2">
	<unicode hex="04BD"/>
	<advance width="500"/>
	<outline>
		<contour>
			<point x="534" y="360" type="qcurve"/>
			<point x="534" y="301"/>
			<point x="477" y="231"/>
			<point x="390" y="194"/>
			<point x="289" y="183"/>
			<point x="244" y="183" type="qcurve"/>
			<point x="242" y="175"/>
			<point x="242" y="164"/>
			<point x="242" y="162" type="qcurve"/>
			<point x="242" y="141"/>
			<point x="250" y="105"/>
			<point x="272" y="77"/>
			<point x="311" y="61"/>
			<point x="343" y="61" type="qcurve"/>
			<point x="358" y="61"/>
			<point x="390" y="67"/>
			<point x="419" y="76"/>
			<point x="442" y="87"/>
			<point x="447" y="91" type="qcurve"/>
			<point x="454" y="21" type="line"/>
			<point x="437" y="10"/>
			<point x="365" y="-12"/>
			<point x="317" y="-12" type="qcurve"/>
			<point x="277" y="-12"/>
			<point x="219" y="14"/>
			<point x="180" y="59"/>
			<point x="161" y="120"/>
			<point x="161" y="154" type="qcurve"/>
			<point x="161" y="162"/>
			<point x="161" y="181"/>
			<point x="163" y="189" type="qcurve"/>
			<point x="66" y="211"/>
			<point x="66" y="296" type="qcurve"/>
			<point x="66" y="315"/>
			<point x="75" y="356"/>
			<point x="83" y="370" type="qcurve"/>
			<point x="146" y="362" type="line"/>
			<point x="144" y="359"/>
			<point x="134" y="330"/>
			<point x="134" y="316" type="qcurve"/>
			<point x="134" y="261"/>
			<point x="174" y="254" type="qcurve"/>
			<point x="185" y="301"/>
			<point x="227" y="382"/>
			<point x="287" y="441"/>
			<point x="364" y="475"/>
			<point x="410" y="475" type="qcurve"/>
			<point x="443" y="475"/>
			<point x="490" y="456"/>
			<point x="520" y="425"/>
			<point x="534" y="383"/>
		</contour>
		<contour>
			<point x="254" y="244" type="qcurve"/>
			<point x="297" y="245"/>
			<point x="370" y="254"/>
			<point x="423" y="278"/>
			<point x="453" y="321"/>
			<point x="453" y="354" type="qcurve"/>
			<point x="453" y="370"/>
			<point x="431" y="405"/>
			<point x="399" y="405" type="qcurve"/>
			<point x="373" y="405"/>
			<point x="326" y="379"/>
			<point x="289" y="335"/>
			<point x="261" y="277"/>
		</contour>
	</outline>
</glyph>
<glyph name="uni04BE" format="2">
	<unicode hex="04BE"/>
	<advance width="500"/>
	<outline>
		<contour>
			<point x="277" y="289" type="line"/>
			<point x="263" y="222"/>
			<point x="263" y="178" type="qcurve"/>
			<point x="263" y="143"/>
			<point x="274" y="97"/>
			<point x="295" y="70"/>
			<point x="325" y="59"/>
			<point x="345" y="59" type="qcurve"/>
			<point x="374" y="59"/>
			<point x="424" y="75"/>
			<point x="444" y="88" type="qcurve"/>
			<point x="452" y="19" type="line"/>
			<point x="438" y="11"/>
			<point x="392" y="-8"/>
			<point x="357" y="-12" type="qcurve"/>
			<point x="321" y="-165" type="line"/>
			<point x="242" y="-165" type="line"/>
			<point x="280" y="-6" type="line"/>
			<point x="234" y="7"/>
			<point x="182" y="86"/>
			<point x="182" y="157" type="qcurve"/>
			<point x="182" y="219"/>
			<point x="196" y="292" type="qcurve"/>
			<point x="169" y="295"/>
			<point x="123" y="313"/>
			<point x="94" y="346"/>
			<point x="84" y="395"/>
			<point x="92" y="430" type="qcurve"/>
			<point x="95" y="443"/>
			<point x="105" y="464"/>
			<point x="108" y="470" type="qcurve"/>
			<point x="173" y="462" type="line"/>
			<point x="169" y="452"/>
			<point x="162" y="431"/>
			<point x="160" y="423" type="qcurve"/>
			<point x="152" y="392"/>
			<point x="175" y="362"/>
			<point x="211" y="360" type="qcurve"/>
			<point x="225" y="413"/>
			<point x="269" y="512"/>
			<point x="326" y="588"/>
			<point x="396" y="633"/>
			<point x="438" y="633" type="qcurve"/>
			<point x="504" y="633"/>
			<point x="563" y="543"/>
			<point x="563" y="449" type="qcurve"/>
			<point x="563" y="442"/>
			<point x="558" y="405"/>
			<point x="549" y="359"/>
			<point x="537" y="309"/>
			<point x="530" y="289" type="qcurve"/>
		</contour>
		<contour>
			<point x="430" y="563" type="qcurve"/>
			<point x="408" y="563"/>
			<point x="368" y="528"/>
			<point x="333" y="471"/>
			<point x="305" y="398"/>
			<point x="294" y="359" type="qcurve"/>
			<point x="470" y="359" type="line"/>
			<point x="475" y="377"/>
			<point x="486" y="430"/>
			<point x="486" y="451" type="qcurve"/>
			<point x="486" y="508"/>
			<point x="465" y="563"/>
		</contour>
	</outline>
</glyph>
<glyph name="uni04C3" format="2">
	<unicode hex="04C3"/>
	<advance width="500"/>
	<outline>
		<contour>
			<point x="313" y="340" type="qcurve"/>
			<point x="346" y="338"/>
			<point x="404" y="313"/>
			<point x="447" y="265"/>
			<point x="473" y="194"/>
			<point x="473" y="148" type="qcurve"/>
			<point x="473" y="92"/>
			<point x="436" y="-20"/>
			<point x="363" y="-109"/>
			<point x="255" y="-165"/>
			<point x="185" y="-165" type="qcurve"/>
			<point x="172" y="-165"/>
			<point x="146" y="-165"/>
			<point x="138" y="-163" type="qcurve"/>
			<point x="156" y="-92" type="line"/>
			<point x="161" y="-93"/>
			<point x="175" y="-94"/>
			<point x="188" y="-94" type="qcurve"/>
			<point x="234" y="-94"/>
			<point x="310" y="-55"/>
			<point x="362" y="11"/>
			<point x="391" y="98"/>
			<point x="391" y="145" type="qcurve"/>
			<point x="391" y="193"/>
			<point x="359" y="247"/>
			<point x="314" y="274"/>
			<point x="263" y="280"/>
			<point x="244" y="280" type="qcurve"/>
			<point x="233" y="280"/>
			<point x="201" y="279"/>
			<point x="193" y="278" type="qcurve"/>
			<point x="127" y="0" type="line"/>
			<point x="45" y="0" type="line"/>
			<point x="193" y="619" type="line"/>
			<point x="275" y="619" type="line"/>
			<point x="207" y="336" type="line"/>
			<point x="247" y="368"/>
			<point x="331" y="446"/>
			<point x="409" y="524"/>
			<point x="475" y="595"/>
			<point x="497" y="619" type="qcurve"/>
			<point x="599" y="619" type="line"/>
			<point x="571" y="589"/>
			<point x="505" y="520"/>
			<point x="432" y="447"/>
			<point x="353" y="373"/>
		</contour>
	</outline>
</glyph>
<glyph name="uni04C5" format="2">
	<unicode hex="04C5"/>
	<advance width="500"/>
	<outline>
		<contour>
			<point x="361" y="0" type="line"/>
			<point x="346" y="-43"/>
			<point x="305" y="-92"/>
			<point x="257" y="-128" type="curve"/>
			<point x="308" y="-169" type="line"/>
			<point x="389" y="-114"/>
			<point x="453" y="-26"/>
			<point x="464" y="70" type="curve"/>
			<point x="418" y="70" type="line"/>
			<point x="550" y="619" type="line"/>
			<point x="289" y="619" type="line"/>
			<point x="250" y="461"/>
			<point x="205" y="294"/>
			<point x="155" y="198" type="curve" smooth="yes"/>
			<point x="110" y="110"/>
			<point x="70" y="71"/>
			<point x="12" y="61" type="curve"/>
			<point x="4" y="-9" type="line"/>
			<point x="118" y="-3"/>
			<point x="174" y="71"/>
			<point x="228" y="177" type="curve" smooth="yes"/>
			<point x="283" y="285"/>
			<point x="316" y="414"/>
			<point x="353" y="549" type="curve"/>
			<point x="451" y="549" type="line"/>
			<point x="320" y="0" type="line"/>
		</contour>
	</outline>
</glyph>
<glyph name="uni04CC" format="2">
	<unicode hex="04CC"/>
	<advance width="500"/>
	<outline>
		<contour>
			<point x="228" y="464" type="line"/>
			<point x="195" y="328" type="line"/>
			<point x="182" y="274"/>
			<point x="218" y="231"/>
			<point x="268" y="231" type="qcurve"/>
			<point x="304" y="231"/>
			<point x="366" y="238"/>
			<point x="386" y="243" type="qcurve"/>
			<point x="438" y="464" type="line"/>
			<point x="521" y="464" type="line"/>
			<point x="409" y="0" type="line"/>
			<point x="367" y="0" type="line"/>
			<point x="335" y="-129" type="line"/>
			<point x="256" y="-129" type="line"/>
			<point x="304" y="70" type="line"/>
			<point x="343" y="70" type="line"/>
			<point x="370" y="179" type="line"/>
			<point x="362" y="177"/>
			<point x="336" y="172"/>
			<point x="304" y="168"/>
			<point x="269" y="164"/>
			<point x="253" y="164" type="qcurve"/>
			<point x="215" y="164"/>
			<point x="153" y="180"/>
			<point x="114" y="218"/>
			<point x="102" y="281"/>
			<point x="113" y="327" type="qcurve"/>
			<point x="146" y="464" type="line"/>
		</contour>
	</outline>
</glyph>
<glyph name="uni1FBE" format="2">
	<unicode hex="1FBE"/>
	<advance width="500"/>
	<outline>
		<contour>
			<point x="189" y="-45" type="line"/>
			<point x="183" y="-62"/>
			<point x="181" y="-79"/>
			<point x="181" y="-90" type="curve" smooth="yes"/>
			<point x="181" y="-147"/>
			<point x="214" y="-167"/>
			<point x="261" y="-167" type="curve" smooth="yes"/>
			<point x="276" y="-167"/>
			<point x="292" y="-165"/>
			<point x="299" y="-163" type="curve"/>
			<point x="312" y="-113" type="line"/>
			<point x="282" y="-113"/>
			<point x="257" y="-111"/>
			<point x="257" y="-79" type="curve" smooth="yes"/>
			<point x="257" y="-68"/>
			<point x="261" y="-52"/>
			<point x="263" y="-45" type="curve"/>
		</contour>
	</outline>
</glyph>
<glyph name="uni1FBF" format="2">
	<unicode hex="1FBF"/>
	<advance width="500"/>
	<outline>
		<contour>
			<point x="266" y="544" type="line"/>
			<point x="288" y="559"/>
			<point x="322" y="588"/>
			<point x="333" y="604" type="qcurve"/>
			<point x="319" y="611"/>
			<point x="309" y="632"/>
			<point x="309" y="646" type="qcurve"/>
			<point x="309" y="669"/>
			<point x="344" y="697"/>
			<point x="364" y="697" type="qcurve"/>
			<point x="413" y="697"/>
			<point x="413" y="648" type="qcurve"/>
			<point x="413" y="629"/>
			<point x="389" y="591"/>
			<point x="353" y="556"/>
			<point x="310" y="525"/>
			<point x="291" y="513" type="qcurve"/>
		</contour>
	</outline>
</glyph>
<glyph name="uni1FCD" format="2">
	<unicode hex="1FCD"/>
	<advance width="500"/>
	<outline>
		<contour>
			<point x="201" y="544" type="line"/>
			<point x="221" y="559"/>
			<point x="253" y="588"/>
			<point x="264" y="604" type="qcurve"/>
			<point x="253" y="611"/>
			<point x="243" y="633"/>
			<point x="243" y="647" type="qcurve"/>
			<point x="243" y="670"/>
			<point x="275" y="697"/>
			<point x="293" y="697" type="qcurve"/>
			<point x="316" y="697"/>
			<point x="341" y="671"/>
			<point x="341" y="648" type="qcurve"/>
			<point x="341" y="629"/>
			<point x="318" y="590"/>
			<point x="283" y="555"/>
			<point x="243" y="524"/>
			<point x="226" y="513" type="qcurve"/>
		</contour>
		<contour>
			<point x="431" y="699" type="line"/>
			<point x="492" y="540" type="line"/>
			<point x="440" y="513" type="line"/>
			<point x="363" y="665" type="line"/>
		</contour>
	</outline>
</glyph>
<glyph name="uni1FFE" format="2">
	<unicode hex="1FFE"/>
	<advance width="500"/>
	<outline>
		<contour>
			<point x="398" y="513" type="line"/>
			<point x="384" y="525"/>
			<point x="357" y="554"/>
			<point x="336" y="586"/>
			<point x="324" y="619"/>
			<point x="324" y="635" type="qcurve"/>
			<point x="324" y="667"/>
			<point x="359" y="697"/>
			<point x="383" y="697" type="qcurve"/>
			<point x="402" y="697"/>
			<point x="428" y="676"/>
			<point x="428" y="655" type="qcurve"/>
			<point x="428" y="638"/>
			<point x="406" y="611"/>
			<point x="384" y="605" type="qcurve"/>
			<point x="392" y="584"/>
			<point x="413" y="557"/>
			<point x="429" y="541" type="qcurve"/>
		</contour>
	</outline>
</glyph>
<glyph name="afii00208" format="2">
	<unicode hex="2015"/>
	<advance width="500"/>
	<outline>
		<contour>
			<point x="36" y="236" type="line"/>
			<point x="536" y="236" type="line"/>
			<point x="552" y="305" type="line"/>
			<point x="52" y="305" type="line"/>
		</contour>
	</outline>
</glyph>
<glyph name="quoteright" format="2">
	<unicode hex="2019"/>
	<advance width="500"/>
	<outline>
		<contour>
			<point x="357" y="561" type="curve"/>
			<point x="340" y="513"/>
			<point x="283" y="493"/>
			<point x="238" y="488" type="curve"/>
			<point x="245" y="424" type="line"/>
			<point x="392" y="442"/>
			<point x="455" y="549"/>
			<point x="455" y="625" type="curve" smooth="yes"/>
			<point x="455" y="672"/>
			<point x="431" y="707"/>
			<point x="387" y="707" type="curve" smooth="yes"/>
			<point x="338" y="707"/>
			<point x="306" y="672"/>
			<point x="306" y="627" type="curve" smooth="yes"/>
			<point x="306" y="595"/>
			<point x="325" y="566"/>
		</contour>
	</outline>
</glyph>
<glyph name="dagger" format="2">
	<unicode hex="2020"/>
	<advance width="500"/>
	<outline>
		<contour>
			<point x="351" y="356" type="line"/>
			<point x="296" y="129" type="line"/>
			<point x="277" y="54"/>
			<point x="242" y="-68"/>
			<point x="219" y="-129" type="qcurve"/>
			<point x="178" y="-129" type="line"/>
			<point x="185" y="-68"/>
			<point x="206" y="54"/>
			<point x="224" y="129" type="qcurve"/>
			<point x="280" y="356" type="line"/>
			<point x="138" y="356" type="line"/>
			<point x="154" y="425" type="line"/>
			<point x="296" y="425" type="line"/>
			<point x="342" y="619" type="line"/>
			<point x="413" y="619" type="line"/>
			<point x="367" y="425" type="line"/>
			<point x="509" y="425" type="line"/>
			<point x="493" y="356" type="line"/>
		</contour>
	</outline>
	<guideline x="124"/>
</glyph>
<glyph name="guilsinglright" format="2">
	<unicode hex="203A"/>
	<advance width="500"/>
	<outline>
		<contour>
			<point x="303" y="259" type="line"/>
			<point x="163" y="89" type="line"/>
			<point x="214" y="58" type="line"/>
			<point x="396" y="250" type="line"/>
			<point x="290" y="453" type="line"/>
			<point x="235" y="427" type="line"/>
		</contour>
	</outline>
	<guideline y="254"/>
</glyph>
<glyph name="foursuperior" format="2">
	<unicode hex="2074"/>
	<advance width="500"/>
	<outline>
		<contour>
			<point x="451" y="414" type="line"/>
			<point x="438" y="364" type="line"/>
			<point x="394" y="364" type="line"/>
			<point x="374" y="281" type="line"/>
			<point x="313" y="281" type="line"/>
			<point x="333" y="364" type="line"/>
			<point x="168" y="364" type="line"/>
			<point x="178" y="405" type="line"/>
			<point x="192" y="429"/>
			<point x="241" y="488"/>
			<point x="301" y="548"/>
			<point x="368" y="605"/>
			<point x="399" y="626" type="qcurve"/>
			<point x="457" y="626" type="line"/>
			<point x="406" y="414" type="line"/>
		</contour>
		<contour>
			<point x="346" y="414" type="line"/>
			<point x="380" y="555" type="line"/>
			<point x="363" y="541"/>
			<point x="324" y="507"/>
			<point x="287" y="470"/>
			<point x="252" y="432"/>
			<point x="240" y="414" type="qcurve"/>
		</contour>
	</outline>
</glyph>
<glyph name="sixsuperior" format="2">
	<unicode hex="2076"/>
	<advance width="500"/>
	<outline>
		<contour>
			<point x="198" y="382" type="qcurve"/>
			<point x="198" y="439"/>
			<point x="240" y="531"/>
			<point x="315" y="594"/>
			<point x="418" y="628"/>
			<point x="480" y="628" type="qcurve"/>
			<point x="474" y="574" type="line"/>
			<point x="444" y="573"/>
			<point x="386" y="563"/>
			<point x="335" y="542"/>
			<point x="295" y="508"/>
			<point x="283" y="484" type="qcurve"/>
			<point x="302" y="492"/>
			<point x="341" y="499"/>
			<point x="355" y="499" type="qcurve"/>
			<point x="383" y="499"/>
			<point x="420" y="484"/>
			<point x="442" y="459"/>
			<point x="452" y="426"/>
			<point x="452" y="407" type="qcurve"/>
			<point x="452" y="381"/>
			<point x="432" y="333"/>
			<point x="394" y="296"/>
			<point x="340" y="274"/>
			<point x="306" y="274" type="qcurve"/>
			<point x="252" y="274"/>
			<point x="198" y="336"/>
		</contour>
		<contour>
			<point x="338" y="449" type="qcurve"/>
			<point x="319" y="449"/>
			<point x="278" y="441"/>
			<point x="264" y="435" type="qcurve"/>
			<point x="261" y="424"/>
			<point x="257" y="403"/>
			<point x="257" y="395" type="qcurve"/>
			<point x="257" y="360"/>
			<point x="283" y="326"/>
			<point x="313" y="326" type="qcurve"/>
			<point x="351" y="326"/>
			<point x="390" y="373"/>
			<point x="390" y="403" type="qcurve"/>
			<point x="390" y="449"/>
		</contour>
	</outline>
</glyph>
<glyph name="eightsuperior" format="2">
	<unicode hex="2078"/>
	<advance width="500"/>
	<outline>
		<contour>
			<point x="314" y="274" type="qcurve"/>
			<point x="284" y="274"/>
			<point x="242" y="288"/>
			<point x="217" y="311"/>
			<point x="206" y="340"/>
			<point x="206" y="355" type="qcurve"/>
			<point x="206" y="393"/>
			<point x="254" y="445"/>
			<point x="284" y="462" type="qcurve"/>
			<point x="271" y="472"/>
			<point x="254" y="499"/>
			<point x="254" y="525" type="qcurve"/>
			<point x="254" y="549"/>
			<point x="274" y="588"/>
			<point x="310" y="617"/>
			<point x="359" y="633"/>
			<point x="387" y="633" type="qcurve"/>
			<point x="416" y="633"/>
			<point x="455" y="619"/>
			<point x="479" y="596"/>
			<point x="490" y="568"/>
			<point x="490" y="554" type="qcurve"/>
			<point x="490" y="535"/>
			<point x="478" y="505"/>
			<point x="458" y="481"/>
			<point x="433" y="463"/>
			<point x="421" y="456" type="qcurve"/>
			<point x="439" y="446"/>
			<point x="460" y="413"/>
			<point x="460" y="390" type="qcurve"/>
			<point x="460" y="362"/>
			<point x="437" y="319"/>
			<point x="397" y="289"/>
			<point x="344" y="274"/>
		</contour>
		<contour>
			<point x="267" y="364" type="qcurve"/>
			<point x="267" y="350"/>
			<point x="287" y="325"/>
			<point x="321" y="325" type="qcurve"/>
			<point x="353" y="325"/>
			<point x="399" y="353"/>
			<point x="399" y="382" type="qcurve"/>
			<point x="399" y="403"/>
			<point x="359" y="426"/>
			<point x="321" y="437" type="qcurve"/>
			<point x="299" y="426"/>
			<point x="267" y="388"/>
		</contour>
		<contour>
			<point x="431" y="547" type="qcurve"/>
			<point x="431" y="558"/>
			<point x="411" y="582"/>
			<point x="382" y="582" type="qcurve"/>
			<point x="353" y="582"/>
			<point x="313" y="554"/>
			<point x="313" y="530" type="qcurve"/>
			<point x="313" y="514"/>
			<point x="339" y="489"/>
			<point x="376" y="478" type="qcurve"/>
			<point x="397" y="489"/>
			<point x="431" y="523"/>
		</contour>
	</outline>
</glyph>
<glyph name="Euro" format="2">
	<unicode hex="20AC"/>
	<advance width="500"/>
	<outline>
		<contour>
			<point x="221" y="203" type="line"/>
			<point x="221" y="187" type="line"/>
			<point x="221" y="149"/>
			<point x="240" y="100"/>
			<point x="272" y="72"/>
			<point x="316" y="60"/>
			<point x="341" y="60" type="qcurve"/>
			<point x="382" y="60"/>
			<point x="438" y="74"/>
			<point x="460" y="85" type="qcurve"/>
			<point x="463" y="14" type="line"/>
			<point x="457" y="11"/>
			<point x="430" y="2"/>
			<point x="394" y="-6"/>
			<point x="352" y="-12"/>
			<point x="331" y="-12" type="qcurve"/>
			<point x="237" y="-12"/>
			<point x="139" y="85"/>
			<point x="139" y="182" type="qcurve"/>
			<point x="139" y="203" type="line"/>
			<point x="57" y="203" type="line"/>
			<point x="72" y="267" type="line"/>
			<point x="144" y="267" type="line"/>
			<point x="146" y="289"/>
			<point x="156" y="334"/>
			<point x="162" y="357" type="qcurve"/>
			<point x="93" y="357" type="line"/>
			<point x="108" y="421" type="line"/>
			<point x="183" y="421" type="line"/>
			<point x="201" y="465"/>
			<point x="253" y="541"/>
			<point x="324" y="598"/>
			<point x="414" y="630"/>
			<point x="470" y="630" type="qcurve"/>
			<point x="505" y="630"/>
			<point x="554" y="620"/>
			<point x="577" y="610" type="qcurve"/>
			<point x="544" y="543" type="line"/>
			<point x="530" y="551"/>
			<point x="494" y="560"/>
			<point x="459" y="560" type="qcurve"/>
			<point x="424" y="560"/>
			<point x="367" y="539"/>
			<point x="320" y="501"/>
			<point x="283" y="451"/>
			<point x="270" y="421" type="qcurve"/>
			<point x="481" y="421" type="line"/>
			<point x="455" y="357" type="line"/>
			<point x="246" y="357" type="line"/>
			<point x="238" y="335"/>
			<point x="229" y="289"/>
			<point x="227" y="267" type="qcurve"/>
			<point x="419" y="267" type="line"/>
			<point x="394" y="203" type="line"/>
		</contour>
	</outline>
	<guideline y="633"/>
</glyph>
<glyph name="onethird" format="2">
	<unicode hex="2153"/>
	<advance width="500"/>
	<outline>
		<contour>
			<point x="293" y="55" type="line"/>
			<point x="302" y="51"/>
			<point x="335" y="43"/>
			<point x="355" y="43" type="qcurve"/>
			<point x="380" y="43"/>
			<point x="417" y="60"/>
			<point x="417" y="81" type="qcurve"/>
			<point x="417" y="97"/>
			<point x="382" y="106"/>
			<point x="348" y="106" type="qcurve"/>
			<point x="337" y="106" type="line"/>
			<point x="348" y="156" type="line"/>
			<point x="384" y="156" type="line"/>
			<point x="406" y="156"/>
			<point x="432" y="174"/>
			<point x="432" y="188" type="qcurve"/>
			<point x="432" y="209"/>
			<point x="397" y="209" type="qcurve"/>
			<point x="383" y="209"/>
			<point x="346" y="199"/>
			<point x="332" y="194" type="qcurve"/>
			<point x="324" y="237" type="line"/>
			<point x="340" y="245"/>
			<point x="390" y="259"/>
			<point x="416" y="259" type="qcurve"/>
			<point x="445" y="259"/>
			<point x="490" y="234"/>
			<point x="490" y="201" type="qcurve"/>
			<point x="490" y="184"/>
			<point x="468" y="148"/>
			<point x="445" y="136" type="qcurve"/>
			<point x="459" y="127"/>
			<point x="474" y="99"/>
			<point x="474" y="84" type="qcurve"/>
			<point x="474" y="68"/>
			<point x="458" y="35"/>
			<point x="426" y="9"/>
			<point x="378" y="-7"/>
			<point x="346" y="-7" type="qcurve"/>
			<point x="325" y="-7"/>
			<point x="284" y="2"/>
			<point x="268" y="10" type="qcurve"/>
		</contour>
		<contour>
			<point x="138" y="561" type="line"/>
			<point x="176" y="575"/>
			<point x="231" y="603"/>
			<point x="261" y="626" type="qcurve"/>
			<point x="301" y="626" type="line"/>
			<point x="240" y="376" type="line"/>
			<point x="181" y="376" type="line"/>
			<point x="223" y="547" type="line"/>
			<point x="200" y="536"/>
			<point x="165" y="522"/>
			<point x="145" y="516" type="qcurve"/>
		</contour>
		<contour>
			<point x="95" y="0" type="line"/>
			<point x="19" y="0" type="line"/>
			<point x="501" y="619" type="line"/>
			<point x="579" y="619" type="line"/>
		</contour>
	</outline>
</glyph>
<glyph name="twofifths" format="2">
	<unicode hex="2156"/>
	<advance width="500"/>
	<outline>
		<contour>
			<point x="145" y="426" type="line"/>
			<point x="151" y="444"/>
			<point x="289" y="480"/>
			<point x="289" y="563" type="curve" smooth="yes"/>
			<point x="289" y="613"/>
			<point x="255" y="632"/>
			<point x="215" y="632" type="curve" smooth="yes"/>
			<point x="179" y="632"/>
			<point x="138" y="616"/>
			<point x="113" y="594" type="curve"/>
			<point x="137" y="555" type="line"/>
			<point x="154" y="570"/>
			<point x="180" y="580"/>
			<point x="203" y="580" type="curve" smooth="yes"/>
			<point x="221" y="580"/>
			<point x="234" y="573"/>
			<point x="234" y="555" type="curve" smooth="yes"/>
			<point x="234" y="533"/>
			<point x="217" y="520"/>
			<point x="178" y="498" type="curve" smooth="yes"/>
			<point x="152" y="484" type="line" smooth="yes"/>
			<point x="96" y="453"/>
			<point x="82" y="434"/>
			<point x="71" y="376" type="curve"/>
			<point x="260" y="376" type="line"/>
			<point x="271" y="426" type="line"/>
		</contour>
		<contour>
			<point x="409" y="200" type="line"/>
			<point x="505" y="200" type="line"/>
			<point x="517" y="250" type="line"/>
			<point x="371" y="250" type="line"/>
			<point x="355" y="194"/>
			<point x="347" y="179"/>
			<point x="326" y="118" type="curve"/>
			<point x="401" y="118"/>
			<point x="428" y="109"/>
			<point x="428" y="85" type="curve" smooth="yes"/>
			<point x="428" y="54"/>
			<point x="396" y="41"/>
			<point x="358" y="41" type="curve" smooth="yes"/>
			<point x="330" y="41"/>
			<point x="309" y="53"/>
			<point x="296" y="60" type="curve"/>
			<point x="272" y="12" type="line"/>
			<point x="286" y="1"/>
			<point x="317" y="-9"/>
			<point x="348" y="-9" type="curve" smooth="yes"/>
			<point x="434" y="-9"/>
			<point x="483" y="31"/>
			<point x="483" y="96" type="curve" smooth="yes"/>
			<point x="483" y="135"/>
			<point x="459" y="161"/>
			<point x="396" y="163" type="curve"/>
		</contour>
		<contour>
			<point x="589" y="619" type="line"/>
			<point x="512" y="619" type="line"/>
			<point x="29" y="0" type="line"/>
			<point x="105" y="0" type="line"/>
		</contour>
	</outline>
</glyph>
<glyph name="fourfifths" format="2">
	<unicode hex="2158"/>
	<advance width="500"/>
	<outline>
		<contour>
			<point x="313" y="626" type="line"/>
			<point x="276" y="474" type="line"/>
			<point x="312" y="474" type="line"/>
			<point x="300" y="424" type="line"/>
			<point x="264" y="424" type="line"/>
			<point x="253" y="376" type="line"/>
			<point x="194" y="376" type="line"/>
			<point x="205" y="424" type="line"/>
			<point x="76" y="424" type="line"/>
			<point x="86" y="465" type="line"/>
			<point x="124" y="511"/>
			<point x="205" y="590"/>
			<point x="255" y="626" type="qcurve"/>
		</contour>
		<contour>
			<point x="238" y="561" type="line"/>
			<point x="223" y="549"/>
			<point x="200" y="528"/>
			<point x="180" y="508"/>
			<point x="162" y="487"/>
			<point x="152" y="474" type="qcurve"/>
			<point x="217" y="474" type="line"/>
		</contour>
		<contour>
			<point x="396" y="163" type="line"/>
			<point x="444" y="161"/>
			<point x="483" y="125"/>
			<point x="483" y="96" type="qcurve"/>
			<point x="483" y="47"/>
			<point x="413" y="-9"/>
			<point x="348" y="-9" type="qcurve"/>
			<point x="325" y="-9"/>
			<point x="283" y="4"/>
			<point x="272" y="12" type="qcurve"/>
			<point x="296" y="60" type="line"/>
			<point x="306" y="55"/>
			<point x="337" y="41"/>
			<point x="358" y="41" type="qcurve"/>
			<point x="387" y="41"/>
			<point x="428" y="62"/>
			<point x="428" y="85" type="qcurve"/>
			<point x="428" y="103"/>
			<point x="383" y="118"/>
			<point x="326" y="118" type="qcurve"/>
			<point x="334" y="141"/>
			<point x="345" y="172"/>
			<point x="355" y="200"/>
			<point x="365" y="229"/>
			<point x="371" y="250" type="qcurve"/>
			<point x="517" y="250" type="line"/>
			<point x="505" y="200" type="line"/>
			<point x="409" y="200" type="line"/>
		</contour>
		<contour>
			<point x="113" y="0" type="line"/>
			<point x="37" y="0" type="line"/>
			<point x="519" y="619" type="line"/>
			<point x="597" y="619" type="line"/>
		</contour>
	</outline>
</glyph>
<glyph name="sixsevenths" format="2">
	<unicode hex="F50B"/>
	<advance width="500"/>
	<outline>
		<contour>
			<point x="309" y="0" type="line"/>
			<point x="324" y="34"/>
			<point x="349" y="86"/>
			<point x="378" y="131"/>
			<point x="414" y="174"/>
			<point x="438" y="200" type="qcurve"/>
			<point x="335" y="200" type="line"/>
			<point x="346" y="250" type="line"/>
			<point x="522" y="250" type="line"/>
			<point x="512" y="209" type="line"/>
			<point x="482" y="182"/>
			<point x="440" y="138"/>
			<point x="409" y="92"/>
			<point x="383" y="37"/>
			<point x="368" y="0" type="qcurve"/>
		</contour>
		<contour>
			<point x="104" y="0" type="line"/>
			<point x="28" y="0" type="line"/>
			<point x="510" y="619" type="line"/>
			<point x="588" y="619" type="line"/>
		</contour>
		<contour>
			<point x="312" y="585" type="line"/>
			<point x="268" y="583"/>
			<point x="199" y="559"/>
			<point x="179" y="531" type="qcurve"/>
			<point x="204" y="545"/>
			<point x="228" y="545" type="qcurve"/>
			<point x="255" y="545"/>
			<point x="296" y="511"/>
			<point x="296" y="476" type="qcurve"/>
			<point x="296" y="450"/>
			<point x="275" y="410"/>
			<point x="242" y="382"/>
			<point x="200" y="367"/>
			<point x="180" y="367" type="qcurve"/>
			<point x="148" y="367"/>
			<point x="101" y="409"/>
			<point x="101" y="451" type="qcurve"/>
			<point x="101" y="484"/>
			<point x="130" y="550"/>
			<point x="186" y="602"/>
			<point x="267" y="635"/>
			<point x="319" y="635" type="qcurve"/>
		</contour>
		<contour>
			<point x="207" y="495" type="qcurve"/>
			<point x="196" y="495"/>
			<point x="171" y="487"/>
			<point x="158" y="481" type="qcurve"/>
			<point x="156" y="474"/>
			<point x="156" y="462"/>
			<point x="156" y="455" type="qcurve"/>
			<point x="156" y="435"/>
			<point x="178" y="417"/>
			<point x="192" y="417" type="qcurve"/>
			<point x="209" y="417"/>
			<point x="242" y="442"/>
			<point x="242" y="465" type="qcurve"/>
			<point x="242" y="478"/>
			<point x="225" y="495"/>
		</contour>
	</outline>
</glyph>
<glyph name="oneninth" format="2">
	<unicode hex="F50C"/>
	<advance width="500"/>
	<outline>
		<contour>
			<point x="138" y="561" type="line"/>
			<point x="176" y="575"/>
			<point x="231" y="603"/>
			<point x="261" y="626" type="qcurve"/>
			<point x="301" y="626" type="line"/>
			<point x="240" y="376" type="line"/>
			<point x="181" y="376" type="line"/>
			<point x="223" y="547" type="line"/>
			<point x="200" y="536"/>
			<point x="165" y="522"/>
			<point x="145" y="516" type="qcurve"/>
		</contour>
		<contour>
			<point x="104" y="0" type="line"/>
			<point x="28" y="0" type="line"/>
			<point x="510" y="619" type="line"/>
			<point x="588" y="619" type="line"/>
		</contour>
		<contour>
			<point x="293" y="41" type="line"/>
			<point x="336" y="43"/>
			<point x="406" y="67"/>
			<point x="426" y="94" type="qcurve"/>
			<point x="400" y="81"/>
			<point x="377" y="81" type="qcurve"/>
			<point x="349" y="81"/>
			<point x="309" y="115"/>
			<point x="309" y="150" type="qcurve"/>
			<point x="309" y="175"/>
			<point x="330" y="216"/>
			<point x="363" y="244"/>
			<point x="404" y="259"/>
			<point x="424" y="259" type="qcurve"/>
			<point x="456" y="259"/>
			<point x="504" y="217"/>
			<point x="504" y="175" type="qcurve"/>
			<point x="504" y="142"/>
			<point x="474" y="76"/>
			<point x="418" y="24"/>
			<point x="337" y="-9"/>
			<point x="286" y="-9" type="qcurve"/>
		</contour>
		<contour>
			<point x="397" y="131" type="qcurve"/>
			<point x="421" y="131"/>
			<point x="447" y="145" type="qcurve"/>
			<point x="447" y="151"/>
			<point x="448" y="164"/>
			<point x="448" y="171" type="qcurve"/>
			<point x="448" y="191"/>
			<point x="427" y="209"/>
			<point x="413" y="209" type="qcurve"/>
			<point x="395" y="209"/>
			<point x="363" y="184"/>
			<point x="363" y="161" type="qcurve"/>
			<point x="363" y="148"/>
			<point x="379" y="131"/>
		</contour>
	</outline>
</glyph>
<glyph name="twoninths" format="2">
	<unicode hex="F50D"/>
	<advance width="500"/>
	<outline>
		<contour>
			<point x="271" y="426" type="line"/>
			<point x="260" y="376" type="line"/>
			<point x="71" y="376" type="line"/>
			<point x="75" y="398"/>
			<point x="86" y="428"/>
			<point x="104" y="452"/>
			<point x="131" y="472"/>
			<point x="152" y="484" type="qcurve"/>
			<point x="178" y="498" type="line"/>
			<point x="207" y="515"/>
			<point x="234" y="538"/>
			<point x="234" y="555" type="qcurve"/>
			<point x="234" y="569"/>
			<point x="217" y="580"/>
			<point x="203" y="580" type="qcurve"/>
			<point x="186" y="580"/>
			<point x="150" y="566"/>
			<point x="137" y="555" type="qcurve"/>
			<point x="113" y="594" type="line"/>
			<point x="132" y="611"/>
			<point x="188" y="632"/>
			<point x="215" y="632" type="qcurve"/>
			<point x="245" y="632"/>
			<point x="289" y="601"/>
			<point x="289" y="563" type="qcurve"/>
			<point x="289" y="532"/>
			<point x="246" y="486"/>
			<point x="193" y="454"/>
			<point x="147" y="433"/>
			<point x="145" y="426" type="qcurve"/>
		</contour>
		<contour>
			<point x="104" y="0" type="line"/>
			<point x="28" y="0" type="line"/>
			<point x="510" y="619" type="line"/>
			<point x="588" y="619" type="line"/>
		</contour>
		<contour>
			<point x="293" y="41" type="line"/>
			<point x="336" y="43"/>
			<point x="406" y="67"/>
			<point x="426" y="94" type="qcurve"/>
			<point x="400" y="81"/>
			<point x="377" y="81" type="qcurve"/>
			<point x="349" y="81"/>
			<point x="309" y="115"/>
			<point x="309" y="150" type="qcurve"/>
			<point x="309" y="175"/>
			<point x="330" y="216"/>
			<point x="363" y="244"/>
			<point x="404" y="259"/>
			<point x="424" y="259" type="qcurve"/>
			<point x="456" y="259"/>
			<point x="504" y="217"/>
			<point x="504" y="175" type="qcurve"/>
			<point x="504" y="142"/>
			<point x="474" y="76"/>
			<point x="418" y="24"/>
			<point x="337" y="-9"/>
			<point x="286" y="-9" type="qcurve"/>
		</contour>
		<contour>
			<point x="397" y="131" type="qcurve"/>
			<point x="421" y="131"/>
			<point x="447" y="145" type="qcurve"/>
			<point x="447" y="151"/>
			<point x="448" y="164"/>
			<point x="448" y="171" type="qcurve"/>
			<point x="448" y="191"/>
			<point x="427" y="209"/>
			<point x="413" y="209" type="qcurve"/>
			<point x="395" y="209"/>
			<point x="363" y="184"/>
			<point x="363" y="161" type="qcurve"/>
			<point x="363" y="148"/>
			<point x="379" y="131"/>
		</contour>
	</outline>
</glyph>
<glyph name="fiveninths" format="2">
	<unicode hex="F50F"/>
	<advance width="500"/>
	<outline>
		<contour>
			<point x="200" y="539" type="line"/>
			<point x="248" y="537"/>
			<point x="287" y="501"/>
			<point x="287" y="472" type="qcurve"/>
			<point x="287" y="423"/>
			<point x="217" y="367"/>
			<point x="152" y="367" type="qcurve"/>
			<point x="129" y="367"/>
			<point x="86" y="380"/>
			<point x="76" y="388" type="qcurve"/>
			<point x="100" y="436" type="line"/>
			<point x="110" y="431"/>
			<point x="141" y="417"/>
			<point x="162" y="417" type="qcurve"/>
			<point x="190" y="417"/>
			<point x="231" y="438"/>
			<point x="231" y="461" type="qcurve"/>
			<point x="231" y="479"/>
			<point x="186" y="494"/>
			<point x="129" y="494" type="qcurve"/>
			<point x="137" y="517"/>
			<point x="149" y="548"/>
			<point x="159" y="576"/>
			<point x="169" y="605"/>
			<point x="175" y="626" type="qcurve"/>
			<point x="321" y="626" type="line"/>
			<point x="308" y="576" type="line"/>
			<point x="213" y="576" type="line"/>
		</contour>
		<contour>
			<point x="104" y="0" type="line"/>
			<point x="28" y="0" type="line"/>
			<point x="510" y="619" type="line"/>
			<point x="588" y="619" type="line"/>
		</contour>
		<contour>
			<point x="293" y="41" type="line"/>
			<point x="336" y="43"/>
			<point x="406" y="67"/>
			<point x="426" y="94" type="qcurve"/>
			<point x="400" y="81"/>
			<point x="377" y="81" type="qcurve"/>
			<point x="349" y="81"/>
			<point x="309" y="115"/>
			<point x="309" y="150" type="qcurve"/>
			<point x="309" y="175"/>
			<point x="330" y="216"/>
			<point x="363" y="244"/>
			<point x="404" y="259"/>
			<point x="424" y="259" type="qcurve"/>
			<point x="456" y="259"/>
			<point x="504" y="217"/>
			<point x="504" y="175" type="qcurve"/>
			<point x="504" y="142"/>
			<point x="474" y="76"/>
			<point x="418" y="24"/>
			<point x="337" y="-9"/>
			<point x="286" y="-9" type="qcurve"/>
		</contour>
		<contour>
			<point x="397" y="131" type="qcurve"/>
			<point x="421" y="131"/>
			<point x="447" y="145" type="qcurve"/>
			<point x="447" y="151"/>
			<point x="448" y="164"/>
			<point x="448" y="171" type="qcurve"/>
			<point x="448" y="191"/>
			<point x="427" y="209"/>
			<point x="413" y="209" type="qcurve"/>
			<point x="395" y="209"/>
			<point x="363" y="184"/>
			<point x="363" y="161" type="qcurve"/>
			<point x="363" y="148"/>
			<point x="379" y="131"/>
		</contour>
	</outline>
</glyph>
<glyph name="dieresis_acute.cap" format="2">
	<advance width="500"/>
	<outline>
		<contour>
			<point x="468" y="783" type="line"/>
			<point x="377" y="691" type="line"/>
			<point x="339" y="721" type="line"/>
			<point x="415" y="830" type="line"/>
		</contour>
		<contour>
			<point x="257" y="657" type="qcurve"/>
			<point x="239" y="657"/>
			<point x="214" y="680"/>
			<point x="214" y="699" type="qcurve"/>
			<point x="214" y="725"/>
			<point x="247" y="755"/>
			<point x="267" y="755" type="qcurve"/>
			<point x="285" y="755"/>
			<point x="311" y="731"/>
			<point x="311" y="712" type="qcurve"/>
			<point x="311" y="687"/>
			<point x="276" y="657"/>
		</contour>
		<contour>
			<point x="500" y="657" type="qcurve"/>
			<point x="482" y="657"/>
			<point x="457" y="680"/>
			<point x="457" y="699" type="qcurve"/>
			<point x="457" y="725"/>
			<point x="490" y="755"/>
			<point x="510" y="755" type="qcurve"/>
			<point x="528" y="755"/>
			<point x="554" y="731"/>
			<point x="554" y="712" type="qcurve"/>
			<point x="554" y="687"/>
			<point x="519" y="657"/>
		</contour>
	</outline>
</glyph>
<glyph name="dieresis_breve.cap" format="2">
	<advance width="500"/>
	<outline>
		<contour>
			<point x="257" y="657" type="qcurve"/>
			<point x="239" y="657"/>
			<point x="214" y="680"/>
			<point x="214" y="699" type="qcurve"/>
			<point x="214" y="725"/>
			<point x="247" y="755"/>
			<point x="267" y="755" type="qcurve"/>
			<point x="285" y="755"/>
			<point x="311" y="731"/>
			<point x="311" y="712" type="qcurve"/>
			<point x="311" y="687"/>
			<point x="276" y="657"/>
		</contour>
		<contour>
			<point x="500" y="657" type="qcurve"/>
			<point x="482" y="657"/>
			<point x="457" y="680"/>
			<point x="457" y="699" type="qcurve"/>
			<point x="457" y="725"/>
			<point x="490" y="755"/>
			<point x="510" y="755" type="qcurve"/>
			<point x="528" y="755"/>
			<point x="554" y="731"/>
			<point x="554" y="712" type="qcurve"/>
			<point x="554" y="687"/>
			<point x="519" y="657"/>
		</contour>
		<contour>
			<point x="311" y="794" type="line"/>
			<point x="344" y="830" type="line"/>
			<point x="389" y="791" type="line"/>
			<point x="451" y="830" type="line"/>
			<point x="475" y="788" type="line"/>
			<point x="379" y="718" type="line"/>
		</contour>
	</outline>
</glyph>
<glyph name="dot_macron" format="2">
	<advance width="500"/>
	<outline>
		<contour>
			<point x="353" y="524" type="qcurve"/>
			<point x="334" y="524"/>
			<point x="309" y="547"/>
			<point x="309" y="567" type="qcurve"/>
			<point x="309" y="593"/>
			<point x="342" y="624"/>
			<point x="363" y="624" type="qcurve"/>
			<point x="381" y="624"/>
			<point x="407" y="600"/>
			<point x="407" y="580" type="qcurve"/>
			<point x="407" y="555"/>
			<point x="372" y="524"/>
		</contour>
		<contour>
			<point x="277" y="716" type="line"/>
			<point x="504" y="716" type="line"/>
			<point x="490" y="659" type="line"/>
			<point x="263" y="659" type="line"/>
		</contour>
	</outline>
</glyph>
<glyph name="napostrophe.case" format="2">
	<advance width="500"/>
	<outline>
		<contour>
			<point x="292" y="693" type="line"/>
			<point x="286" y="665"/>
			<point x="263" y="611"/>
			<point x="236" y="562"/>
			<point x="205" y="520"/>
			<point x="190" y="505" type="qcurve"/>
			<point x="138" y="525" type="line"/>
			<point x="164" y="567"/>
			<point x="200" y="650"/>
			<point x="206" y="693" type="qcurve"/>
		</contour>
		<contour>
			<point x="354" y="0" type="line"/>
			<point x="355" y="96"/>
			<point x="353" y="307"/>
			<point x="353" y="421" type="qcurve"/>
			<point x="251" y="0" type="line"/>
			<point x="181" y="0" type="line"/>
			<point x="330" y="619" type="line"/>
			<point x="405" y="619" type="line"/>
			<point x="409" y="519"/>
			<point x="417" y="311"/>
			<point x="413" y="223" type="qcurve"/>
			<point x="508" y="619" type="line"/>
			<point x="578" y="619" type="line"/>
			<point x="429" y="0" type="line"/>
		</contour>
	</outline>
</glyph>
<glyph name="revcommaaccent" format="2">
	<advance width="500"/>
	<outline>
		<contour>
			<point x="315" y="544" type="line"/>
			<point x="321" y="607"/>
			<point x="391" y="686"/>
			<point x="447" y="697" type="qcurve"/>
			<point x="472" y="657" type="line"/>
			<point x="440" y="643"/>
			<point x="405" y="596"/>
			<point x="395" y="544" type="qcurve"/>
		</contour>
	</outline>
</glyph>
